<?xml version="1.0" encoding="UTF-8" standalone="no"?>
<!DOCTYPE svg PUBLIC "-//W3C//DTD SVG 1.1//EN"
 "http://www.w3.org/Graphics/SVG/1.1/DTD/svg11.dtd">
<!-- Generated by graphviz version 2.38.0 (20140413.2041)
 -->
<!-- Title: controllers_diagram Pages: 1 -->
<svg width="699pt" height="672pt"
 viewBox="0.00 0.00 699.00 672.00" xmlns="http://www.w3.org/2000/svg" xmlns:xlink="http://www.w3.org/1999/xlink">
<g id="graph0" class="graph" transform="scale(1 1) rotate(0) translate(274 413.5)">
<title>controllers_diagram</title>
<polygon fill="none" stroke="none" points="-274,258.5 -274,-413.5 425,-413.5 425,258.5 -274,258.5"/>
<!-- _diagram_info -->
<g id="node1" class="node"><title>_diagram_info</title>
<text text-anchor="start" x="68" y="-123.6" font-family="Times,serif" font-size="13.00">Controllers diagram</text>
<text text-anchor="start" x="68" y="-109.6" font-family="Times,serif" font-size="13.00">Date: Nov 23 2016 &#45; 10:33</text>
<text text-anchor="start" x="68" y="-95.6" font-family="Times,serif" font-size="13.00">Migration version: 20161122102742</text>
<text text-anchor="start" x="68" y="-81.6" font-family="Times,serif" font-size="13.00">Generated by RailRoady 1.5.2</text>
<text text-anchor="start" x="68" y="-67.6" font-family="Times,serif" font-size="13.00">http://railroady.prestonlee.com</text>
</g>
<!-- Users::RegistrationsController -->
<g id="node2" class="node"><title>Users::RegistrationsController</title>
<path fill="none" stroke="black" d="M147,134C147,134 305,134 305,134 311,134 317,128 317,122 317,122 317,52 317,52 317,46 311,40 305,40 305,40 147,40 147,40 141,40 135,46 135,52 135,52 135,122 135,122 135,128 141,134 147,134"/>
<text text-anchor="middle" x="226" y="55.2" font-family="Times,serif" font-size="14.00">Users::RegistrationsController</text>
<polyline fill="none" stroke="black" points="135,63 317,63 "/>
<polyline fill="none" stroke="black" points="135,87 317,87 "/>
<polyline fill="none" stroke="black" points="135,111 317,111 "/>
<text text-anchor="start" x="143" y="126.2" font-family="Times,serif" font-size="14.00">_layout</text>
</g>
<!-- Users::ConfirmationsController -->
<g id="node3" class="node"><title>Users::ConfirmationsController</title>
<path fill="none" stroke="black" d="M177.5,-166C177.5,-166 342.5,-166 342.5,-166 348.5,-166 354.5,-172 354.5,-178 354.5,-178 354.5,-248 354.5,-248 354.5,-254 348.5,-260 342.5,-260 342.5,-260 177.5,-260 177.5,-260 171.5,-260 165.5,-254 165.5,-248 165.5,-248 165.5,-178 165.5,-178 165.5,-172 171.5,-166 177.5,-166"/>
<text text-anchor="middle" x="260" y="-244.8" font-family="Times,serif" font-size="14.00">Users::ConfirmationsController</text>
<polyline fill="none" stroke="black" points="165.5,-237 354.5,-237 "/>
<polyline fill="none" stroke="black" points="165.5,-213 354.5,-213 "/>
<polyline fill="none" stroke="black" points="165.5,-189 354.5,-189 "/>
<text text-anchor="start" x="173.5" y="-173.8" font-family="Times,serif" font-size="14.00">_layout</text>
</g>
<!-- Users::SessionsController -->
<g id="node4" class="node"><title>Users::SessionsController</title>
<path fill="none" stroke="black" d="M27.5,254C27.5,254 160.5,254 160.5,254 166.5,254 172.5,248 172.5,242 172.5,242 172.5,172 172.5,172 172.5,166 166.5,160 160.5,160 160.5,160 27.5,160 27.5,160 21.5,160 15.5,166 15.5,172 15.5,172 15.5,242 15.5,242 15.5,248 21.5,254 27.5,254"/>
<text text-anchor="middle" x="94" y="175.2" font-family="Times,serif" font-size="14.00">Users::SessionsController</text>
<polyline fill="none" stroke="black" points="15.5,183 172.5,183 "/>
<polyline fill="none" stroke="black" points="15.5,207 172.5,207 "/>
<polyline fill="none" stroke="black" points="15.5,231 172.5,231 "/>
<text text-anchor="start" x="23.5" y="246.2" font-family="Times,serif" font-size="14.00">_layout</text>
</g>
<!-- Users::OmniauthCallbacksController -->
<g id="node5" class="node"><title>Users::OmniauthCallbacksController</title>
<path fill="none" stroke="black" d="M-108,59C-108,59 86,59 86,59 92,59 98,53 98,47 98,47 98,-23 98,-23 98,-29 92,-35 86,-35 86,-35 -108,-35 -108,-35 -114,-35 -120,-29 -120,-23 -120,-23 -120,47 -120,47 -120,53 -114,59 -108,59"/>
<text text-anchor="middle" x="-11" y="-19.8" font-family="Times,serif" font-size="14.00">Users::OmniauthCallbacksController</text>
<polyline fill="none" stroke="black" points="-120,-12 98,-12 "/>
<polyline fill="none" stroke="black" points="-120,12 98,12 "/>
<polyline fill="none" stroke="black" points="-120,36 98,36 "/>
<text text-anchor="start" x="-112" y="51.2" font-family="Times,serif" font-size="14.00">_layout</text>
</g>
<!-- Users::PasswordsController -->
<g id="node6" class="node"><title>Users::PasswordsController</title>
<path fill="none" stroke="black" d="M-168.5,179C-168.5,179 -25.5,179 -25.5,179 -19.5,179 -13.5,173 -13.5,167 -13.5,167 -13.5,97 -13.5,97 -13.5,91 -19.5,85 -25.5,85 -25.5,85 -168.5,85 -168.5,85 -174.5,85 -180.5,91 -180.5,97 -180.5,97 -180.5,167 -180.5,167 -180.5,173 -174.5,179 -168.5,179"/>
<text text-anchor="middle" x="-97" y="100.2" font-family="Times,serif" font-size="14.00">Users::PasswordsController</text>
<polyline fill="none" stroke="black" points="-180.5,108 -13.5,108 "/>
<polyline fill="none" stroke="black" points="-180.5,132 -13.5,132 "/>
<polyline fill="none" stroke="black" points="-180.5,156 -13.5,156 "/>
<text text-anchor="start" x="-172.5" y="171.2" font-family="Times,serif" font-size="14.00">_layout</text>
</g>
<!-- Users::UnlocksController -->
<g id="node7" class="node"><title>Users::UnlocksController</title>
<path fill="none" stroke="black" d="M222.5,254C222.5,254 353.5,254 353.5,254 359.5,254 365.5,248 365.5,242 365.5,242 365.5,172 365.5,172 365.5,166 359.5,160 353.5,160 353.5,160 222.5,160 222.5,160 216.5,160 210.5,166 210.5,172 210.5,172 210.5,242 210.5,242 210.5,248 216.5,254 222.5,254"/>
<text text-anchor="middle" x="288" y="175.2" font-family="Times,serif" font-size="14.00">Users::UnlocksController</text>
<polyline fill="none" stroke="black" points="210.5,183 365.5,183 "/>
<polyline fill="none" stroke="black" points="210.5,207 365.5,207 "/>
<polyline fill="none" stroke="black" points="210.5,231 365.5,231 "/>
<text text-anchor="start" x="218.5" y="246.2" font-family="Times,serif" font-size="14.00">_layout</text>
</g>
<!-- LecturersController -->
<g id="node8" class="node"><title>LecturersController</title>
<path fill="none" stroke="black" d="M-242.5,-256C-242.5,-256 -143.5,-256 -143.5,-256 -137.5,-256 -131.5,-262 -131.5,-268 -131.5,-268 -131.5,-382 -131.5,-382 -131.5,-388 -137.5,-394 -143.5,-394 -143.5,-394 -242.5,-394 -242.5,-394 -248.5,-394 -254.5,-388 -254.5,-382 -254.5,-382 -254.5,-268 -254.5,-268 -254.5,-262 -248.5,-256 -242.5,-256"/>
<text text-anchor="middle" x="-193" y="-378.8" font-family="Times,serif" font-size="14.00">LecturersController</text>
<polyline fill="none" stroke="black" points="-254.5,-371 -131.5,-371 "/>
<text text-anchor="start" x="-246.5" y="-355.8" font-family="Times,serif" font-size="14.00">create</text>
<text text-anchor="start" x="-246.5" y="-340.8" font-family="Times,serif" font-size="14.00">destroy</text>
<text text-anchor="start" x="-246.5" y="-325.8" font-family="Times,serif" font-size="14.00">edit</text>
<text text-anchor="start" x="-246.5" y="-310.8" font-family="Times,serif" font-size="14.00">index</text>
<polyline fill="none" stroke="black" points="-254.5,-303 -131.5,-303 "/>
<polyline fill="none" stroke="black" points="-254.5,-279 -131.5,-279 "/>
<text text-anchor="start" x="-246.5" y="-263.8" font-family="Times,serif" font-size="14.00">_layout</text>
</g>
<!-- CoursesController -->
<g id="node9" class="node"><title>CoursesController</title>
<path fill="none" stroke="black" d="M-243,-91C-243,-91 -151,-91 -151,-91 -145,-91 -139,-97 -139,-103 -139,-103 -139,-217 -139,-217 -139,-223 -145,-229 -151,-229 -151,-229 -243,-229 -243,-229 -249,-229 -255,-223 -255,-217 -255,-217 -255,-103 -255,-103 -255,-97 -249,-91 -243,-91"/>
<text text-anchor="middle" x="-197" y="-213.8" font-family="Times,serif" font-size="14.00">CoursesController</text>
<polyline fill="none" stroke="black" points="-255,-206 -139,-206 "/>
<text text-anchor="start" x="-247" y="-190.8" font-family="Times,serif" font-size="14.00">create</text>
<text text-anchor="start" x="-247" y="-175.8" font-family="Times,serif" font-size="14.00">destroy</text>
<text text-anchor="start" x="-247" y="-160.8" font-family="Times,serif" font-size="14.00">edit</text>
<text text-anchor="start" x="-247" y="-145.8" font-family="Times,serif" font-size="14.00">index</text>
<polyline fill="none" stroke="black" points="-255,-138 -139,-138 "/>
<polyline fill="none" stroke="black" points="-255,-114 -139,-114 "/>
<text text-anchor="start" x="-247" y="-98.8" font-family="Times,serif" font-size="14.00">_layout</text>
</g>
<!-- TesthomeController -->
<g id="node10" class="node"><title>TesthomeController</title>
<path fill="none" stroke="black" d="M-258,29.5C-258,29.5 -156,29.5 -156,29.5 -150,29.5 -144,23.5 -144,17.5 -144,17.5 -144,-51.5 -144,-51.5 -144,-57.5 -150,-63.5 -156,-63.5 -156,-63.5 -258,-63.5 -258,-63.5 -264,-63.5 -270,-57.5 -270,-51.5 -270,-51.5 -270,17.5 -270,17.5 -270,23.5 -264,29.5 -258,29.5"/>
<text text-anchor="middle" x="-207" y="-48.3" font-family="Times,serif" font-size="14.00">TesthomeController</text>
<polyline fill="none" stroke="black" points="-270,-40.5 -144,-40.5 "/>
<text text-anchor="start" x="-262" y="-25.3" font-family="Times,serif" font-size="14.00">home</text>
<polyline fill="none" stroke="black" points="-270,-17.5 -144,-17.5 "/>
<polyline fill="none" stroke="black" points="-270,6.5 -144,6.5 "/>
<text text-anchor="start" x="-262" y="21.7" font-family="Times,serif" font-size="14.00">_layout</text>
</g>
<!-- UniversitiesController -->
<g id="node11" class="node"><title>UniversitiesController</title>
<path fill="none" stroke="black" d="M-92.5,-106C-92.5,-106 20.5,-106 20.5,-106 26.5,-106 32.5,-112 32.5,-118 32.5,-118 32.5,-232 32.5,-232 32.5,-238 26.5,-244 20.5,-244 20.5,-244 -92.5,-244 -92.5,-244 -98.5,-244 -104.5,-238 -104.5,-232 -104.5,-232 -104.5,-118 -104.5,-118 -104.5,-112 -98.5,-106 -92.5,-106"/>
<text text-anchor="middle" x="-36" y="-228.8" font-family="Times,serif" font-size="14.00">UniversitiesController</text>
<polyline fill="none" stroke="black" points="-104.5,-221 32.5,-221 "/>
<text text-anchor="start" x="-96.5" y="-205.8" font-family="Times,serif" font-size="14.00">create</text>
<text text-anchor="start" x="-96.5" y="-190.8" font-family="Times,serif" font-size="14.00">destroy</text>
<text text-anchor="start" x="-96.5" y="-175.8" font-family="Times,serif" font-size="14.00">edit</text>
<text text-anchor="start" x="-96.5" y="-160.8" font-family="Times,serif" font-size="14.00">index</text>
<polyline fill="none" stroke="black" points="-104.5,-153 32.5,-153 "/>
<polyline fill="none" stroke="black" points="-104.5,-129 32.5,-129 "/>
<text text-anchor="start" x="-96.5" y="-113.8" font-family="Times,serif" font-size="14.00">_layout</text>
</g>
<!-- ExamsController -->
<g id="node12" class="node"><title>ExamsController</title>
<path fill="none" stroke="black" d="M42,-271C42,-271 128,-271 128,-271 134,-271 140,-277 140,-283 140,-283 140,-397 140,-397 140,-403 134,-409 128,-409 128,-409 42,-409 42,-409 36,-409 30,-403 30,-397 30,-397 30,-283 30,-283 30,-277 36,-271 42,-271"/>
<text text-anchor="middle" x="85" y="-393.8" font-family="Times,serif" font-size="14.00">ExamsController</text>
<polyline fill="none" stroke="black" points="30,-386 140,-386 "/>
<text text-anchor="start" x="38" y="-370.8" font-family="Times,serif" font-size="14.00">create</text>
<text text-anchor="start" x="38" y="-355.8" font-family="Times,serif" font-size="14.00">destroy</text>
<text text-anchor="start" x="38" y="-340.8" font-family="Times,serif" font-size="14.00">edit</text>
<text text-anchor="start" x="38" y="-325.8" font-family="Times,serif" font-size="14.00">index</text>
<polyline fill="none" stroke="black" points="30,-318 140,-318 "/>
<polyline fill="none" stroke="black" points="30,-294 140,-294 "/>
<text text-anchor="start" x="38" y="-278.8" font-family="Times,serif" font-size="14.00">_layout</text>
</g>
<!-- ApplicationController -->
<g id="node13" class="node"><title>ApplicationController</title>
<path fill="none" stroke="black" d="M297,-286C297,-286 409,-286 409,-286 415,-286 421,-292 421,-298 421,-298 421,-368 421,-368 421,-374 415,-380 409,-380 409,-380 297,-380 297,-380 291,-380 285,-374 285,-368 285,-368 285,-298 285,-298 285,-292 291,-286 297,-286"/>
<text text-anchor="middle" x="353" y="-364.8" font-family="Times,serif" font-size="14.00">ApplicationController</text>
<polyline fill="none" stroke="black" points="285,-357 421,-357 "/>
<polyline fill="none" stroke="black" points="285,-333 421,-333 "/>
<polyline fill="none" stroke="black" points="285,-309 421,-309 "/>
<text text-anchor="start" x="293" y="-293.8" font-family="Times,serif" font-size="14.00">_layout</text>
</g>
</g>
</svg>
