<?xml version="1.0" encoding="UTF-8" standalone="no"?>
<!DOCTYPE svg PUBLIC "-//W3C//DTD SVG 1.1//EN"
 "http://www.w3.org/Graphics/SVG/1.1/DTD/svg11.dtd">
<!-- Generated by graphviz version 2.38.0 (20140413.2041)
 -->
<!-- Title: controllers_diagram Pages: 1 -->
<svg width="1530pt" height="1340pt"
 viewBox="0.00 0.00 1529.73 1340.35" xmlns="http://www.w3.org/2000/svg" xmlns:xlink="http://www.w3.org/1999/xlink">
<g id="graph0" class="graph" transform="scale(1 1) rotate(0) translate(766.733 681.993)">
<title>controllers_diagram</title>
<polygon fill="none" stroke="none" points="-766.733,658.36 -766.733,-681.993 763,-681.993 763,658.36 -766.733,658.36"/>
<!-- _diagram_info -->
<g id="node1" class="node"><title>_diagram_info</title>
<text text-anchor="start" x="553" y="590.4" font-family="Times,serif" font-size="13.00">Controllers diagram</text>
<text text-anchor="start" x="553" y="604.4" font-family="Times,serif" font-size="13.00">Date: Dec 04 2016 &#45; 18:03</text>
<text text-anchor="start" x="553" y="618.4" font-family="Times,serif" font-size="13.00">Migration version: 20161204161751</text>
<text text-anchor="start" x="553" y="632.4" font-family="Times,serif" font-size="13.00">Generated by RailRoady 1.5.2</text>
<text text-anchor="start" x="553" y="646.4" font-family="Times,serif" font-size="13.00">http://railroady.prestonlee.com</text>
</g>
<!-- Users::RegistrationsController -->
<g id="node2" class="node"><title>Users::RegistrationsController</title>
<path fill="none" stroke="black" d="M-722.757,-537.084C-722.757,-537.084 -564.757,-537.084 -564.757,-537.084 -558.757,-537.084 -552.757,-543.084 -552.757,-549.084 -552.757,-549.084 -552.757,-619.084 -552.757,-619.084 -552.757,-625.084 -558.757,-631.084 -564.757,-631.084 -564.757,-631.084 -722.757,-631.084 -722.757,-631.084 -728.757,-631.084 -734.757,-625.084 -734.757,-619.084 -734.757,-619.084 -734.757,-549.084 -734.757,-549.084 -734.757,-543.084 -728.757,-537.084 -722.757,-537.084"/>
<text text-anchor="middle" x="-643.757" y="-615.884" font-family="Times,serif" font-size="14.00">Users::RegistrationsController</text>
<polyline fill="none" stroke="black" points="-734.757,-608.084 -552.757,-608.084 "/>
<polyline fill="none" stroke="black" points="-734.757,-584.084 -552.757,-584.084 "/>
<polyline fill="none" stroke="black" points="-734.757,-560.084 -552.757,-560.084 "/>
<text text-anchor="start" x="-726.757" y="-544.884" font-family="Times,serif" font-size="14.00">_layout</text>
</g>
<!-- Users::ConfirmationsController -->
<g id="node3" class="node"><title>Users::ConfirmationsController</title>
<path fill="none" stroke="black" d="M534.42,21.3902C534.42,21.3902 699.42,21.3902 699.42,21.3902 705.42,21.3902 711.42,15.3902 711.42,9.39021 711.42,9.39021 711.42,-60.6098 711.42,-60.6098 711.42,-66.6098 705.42,-72.6098 699.42,-72.6098 699.42,-72.6098 534.42,-72.6098 534.42,-72.6098 528.42,-72.6098 522.42,-66.6098 522.42,-60.6098 522.42,-60.6098 522.42,9.39021 522.42,9.39021 522.42,15.3902 528.42,21.3902 534.42,21.3902"/>
<text text-anchor="middle" x="616.92" y="-57.4098" font-family="Times,serif" font-size="14.00">Users::ConfirmationsController</text>
<polyline fill="none" stroke="black" points="522.42,-49.6098 711.42,-49.6098 "/>
<polyline fill="none" stroke="black" points="522.42,-25.6098 711.42,-25.6098 "/>
<polyline fill="none" stroke="black" points="522.42,-1.60979 711.42,-1.60979 "/>
<text text-anchor="start" x="530.42" y="13.5902" font-family="Times,serif" font-size="14.00">_layout</text>
</g>
<!-- Users::SessionsController -->
<g id="node4" class="node"><title>Users::SessionsController</title>
<path fill="none" stroke="black" d="M553.996,516.943C553.996,516.943 686.996,516.943 686.996,516.943 692.996,516.943 698.996,510.943 698.996,504.943 698.996,504.943 698.996,434.943 698.996,434.943 698.996,428.943 692.996,422.943 686.996,422.943 686.996,422.943 553.996,422.943 553.996,422.943 547.996,422.943 541.996,428.943 541.996,434.943 541.996,434.943 541.996,504.943 541.996,504.943 541.996,510.943 547.996,516.943 553.996,516.943"/>
<text text-anchor="middle" x="620.496" y="438.143" font-family="Times,serif" font-size="14.00">Users::SessionsController</text>
<polyline fill="none" stroke="black" points="541.996,445.943 698.996,445.943 "/>
<polyline fill="none" stroke="black" points="541.996,469.943 698.996,469.943 "/>
<polyline fill="none" stroke="black" points="541.996,493.943 698.996,493.943 "/>
<text text-anchor="start" x="549.996" y="509.143" font-family="Times,serif" font-size="14.00">_layout</text>
</g>
<!-- Users::OmniauthCallbacksController -->
<g id="node5" class="node"><title>Users::OmniauthCallbacksController</title>
<path fill="none" stroke="black" d="M496.495,-488.422C496.495,-488.422 690.495,-488.422 690.495,-488.422 696.495,-488.422 702.495,-494.422 702.495,-500.422 702.495,-500.422 702.495,-570.422 702.495,-570.422 702.495,-576.422 696.495,-582.422 690.495,-582.422 690.495,-582.422 496.495,-582.422 496.495,-582.422 490.495,-582.422 484.495,-576.422 484.495,-570.422 484.495,-570.422 484.495,-500.422 484.495,-500.422 484.495,-494.422 490.495,-488.422 496.495,-488.422"/>
<text text-anchor="middle" x="593.495" y="-567.222" font-family="Times,serif" font-size="14.00">Users::OmniauthCallbacksController</text>
<polyline fill="none" stroke="black" points="484.495,-559.422 702.495,-559.422 "/>
<polyline fill="none" stroke="black" points="484.495,-535.422 702.495,-535.422 "/>
<polyline fill="none" stroke="black" points="484.495,-511.422 702.495,-511.422 "/>
<text text-anchor="start" x="492.495" y="-496.222" font-family="Times,serif" font-size="14.00">_layout</text>
</g>
<!-- Users::PasswordsController -->
<g id="node6" class="node"><title>Users::PasswordsController</title>
<path fill="none" stroke="black" d="M-281.399,-573.323C-281.399,-573.323 -138.399,-573.323 -138.399,-573.323 -132.399,-573.323 -126.399,-579.323 -126.399,-585.323 -126.399,-585.323 -126.399,-655.323 -126.399,-655.323 -126.399,-661.323 -132.399,-667.323 -138.399,-667.323 -138.399,-667.323 -281.399,-667.323 -281.399,-667.323 -287.399,-667.323 -293.399,-661.323 -293.399,-655.323 -293.399,-655.323 -293.399,-585.323 -293.399,-585.323 -293.399,-579.323 -287.399,-573.323 -281.399,-573.323"/>
<text text-anchor="middle" x="-209.899" y="-652.123" font-family="Times,serif" font-size="14.00">Users::PasswordsController</text>
<polyline fill="none" stroke="black" points="-293.399,-644.323 -126.399,-644.323 "/>
<polyline fill="none" stroke="black" points="-293.399,-620.323 -126.399,-620.323 "/>
<polyline fill="none" stroke="black" points="-293.399,-596.323 -126.399,-596.323 "/>
<text text-anchor="start" x="-285.399" y="-581.123" font-family="Times,serif" font-size="14.00">_layout</text>
</g>
<!-- Users::UnlocksController -->
<g id="node7" class="node"><title>Users::UnlocksController</title>
<path fill="none" stroke="black" d="M-750.733,-136.88C-750.733,-136.88 -619.733,-136.88 -619.733,-136.88 -613.733,-136.88 -607.733,-142.88 -607.733,-148.88 -607.733,-148.88 -607.733,-218.88 -607.733,-218.88 -607.733,-224.88 -613.733,-230.88 -619.733,-230.88 -619.733,-230.88 -750.733,-230.88 -750.733,-230.88 -756.733,-230.88 -762.733,-224.88 -762.733,-218.88 -762.733,-218.88 -762.733,-148.88 -762.733,-148.88 -762.733,-142.88 -756.733,-136.88 -750.733,-136.88"/>
<text text-anchor="middle" x="-685.233" y="-215.68" font-family="Times,serif" font-size="14.00">Users::UnlocksController</text>
<polyline fill="none" stroke="black" points="-762.733,-207.88 -607.733,-207.88 "/>
<polyline fill="none" stroke="black" points="-762.733,-183.88 -607.733,-183.88 "/>
<polyline fill="none" stroke="black" points="-762.733,-159.88 -607.733,-159.88 "/>
<text text-anchor="start" x="-754.733" y="-144.68" font-family="Times,serif" font-size="14.00">_layout</text>
</g>
<!-- LecturersController -->
<g id="node8" class="node"><title>LecturersController</title>
<path fill="none" stroke="black" d="M-684.863,269.591C-684.863,269.591 -585.863,269.591 -585.863,269.591 -579.863,269.591 -573.863,263.591 -573.863,257.591 -573.863,257.591 -573.863,113.591 -573.863,113.591 -573.863,107.591 -579.863,101.591 -585.863,101.591 -585.863,101.591 -684.863,101.591 -684.863,101.591 -690.863,101.591 -696.863,107.591 -696.863,113.591 -696.863,113.591 -696.863,257.591 -696.863,257.591 -696.863,263.591 -690.863,269.591 -684.863,269.591"/>
<text text-anchor="middle" x="-635.363" y="116.791" font-family="Times,serif" font-size="14.00">LecturersController</text>
<polyline fill="none" stroke="black" points="-696.863,124.591 -573.863,124.591 "/>
<text text-anchor="start" x="-688.863" y="139.791" font-family="Times,serif" font-size="14.00">create</text>
<text text-anchor="start" x="-688.863" y="154.791" font-family="Times,serif" font-size="14.00">destroy</text>
<text text-anchor="start" x="-688.863" y="169.791" font-family="Times,serif" font-size="14.00">edit</text>
<text text-anchor="start" x="-688.863" y="184.791" font-family="Times,serif" font-size="14.00">index</text>
<text text-anchor="start" x="-688.863" y="199.791" font-family="Times,serif" font-size="14.00">new</text>
<text text-anchor="start" x="-688.863" y="214.791" font-family="Times,serif" font-size="14.00">show</text>
<polyline fill="none" stroke="black" points="-696.863,222.591 -573.863,222.591 "/>
<polyline fill="none" stroke="black" points="-696.863,246.591 -573.863,246.591 "/>
<text text-anchor="start" x="-688.863" y="261.791" font-family="Times,serif" font-size="14.00">_layout</text>
</g>
<!-- CoursesController -->
<g id="node9" class="node"><title>CoursesController</title>
<path fill="none" stroke="black" d="M264.599,653.86C264.599,653.86 356.599,653.86 356.599,653.86 362.599,653.86 368.599,647.86 368.599,641.86 368.599,641.86 368.599,497.86 368.599,497.86 368.599,491.86 362.599,485.86 356.599,485.86 356.599,485.86 264.599,485.86 264.599,485.86 258.599,485.86 252.599,491.86 252.599,497.86 252.599,497.86 252.599,641.86 252.599,641.86 252.599,647.86 258.599,653.86 264.599,653.86"/>
<text text-anchor="middle" x="310.599" y="501.06" font-family="Times,serif" font-size="14.00">CoursesController</text>
<polyline fill="none" stroke="black" points="252.599,508.86 368.599,508.86 "/>
<text text-anchor="start" x="260.599" y="524.06" font-family="Times,serif" font-size="14.00">create</text>
<text text-anchor="start" x="260.599" y="539.06" font-family="Times,serif" font-size="14.00">destroy</text>
<text text-anchor="start" x="260.599" y="554.06" font-family="Times,serif" font-size="14.00">edit</text>
<text text-anchor="start" x="260.599" y="569.06" font-family="Times,serif" font-size="14.00">index</text>
<text text-anchor="start" x="260.599" y="584.06" font-family="Times,serif" font-size="14.00">new</text>
<text text-anchor="start" x="260.599" y="599.06" font-family="Times,serif" font-size="14.00">show</text>
<polyline fill="none" stroke="black" points="252.599,606.86 368.599,606.86 "/>
<polyline fill="none" stroke="black" points="252.599,630.86 368.599,630.86 "/>
<text text-anchor="start" x="260.599" y="646.06" font-family="Times,serif" font-size="14.00">_layout</text>
</g>
<!-- TesthomeController -->
<g id="node10" class="node"><title>TesthomeController</title>
<path fill="none" stroke="black" d="M-724.928,589.153C-724.928,589.153 -622.928,589.153 -622.928,589.153 -616.928,589.153 -610.928,583.153 -610.928,577.153 -610.928,577.153 -610.928,508.153 -610.928,508.153 -610.928,502.153 -616.928,496.153 -622.928,496.153 -622.928,496.153 -724.928,496.153 -724.928,496.153 -730.928,496.153 -736.928,502.153 -736.928,508.153 -736.928,508.153 -736.928,577.153 -736.928,577.153 -736.928,583.153 -730.928,589.153 -724.928,589.153"/>
<text text-anchor="middle" x="-673.928" y="511.353" font-family="Times,serif" font-size="14.00">TesthomeController</text>
<polyline fill="none" stroke="black" points="-736.928,519.153 -610.928,519.153 "/>
<text text-anchor="start" x="-728.928" y="534.353" font-family="Times,serif" font-size="14.00">home</text>
<polyline fill="none" stroke="black" points="-736.928,542.153 -610.928,542.153 "/>
<polyline fill="none" stroke="black" points="-736.928,566.153 -610.928,566.153 "/>
<text text-anchor="start" x="-728.928" y="581.353" font-family="Times,serif" font-size="14.00">_layout</text>
</g>
<!-- UniversitiesController -->
<g id="node11" class="node"><title>UniversitiesController</title>
<path fill="none" stroke="black" d="M-55.9197,625.91C-55.9197,625.91 57.0803,625.91 57.0803,625.91 63.0803,625.91 69.0803,619.91 69.0803,613.91 69.0803,613.91 69.0803,469.91 69.0803,469.91 69.0803,463.91 63.0803,457.91 57.0803,457.91 57.0803,457.91 -55.9197,457.91 -55.9197,457.91 -61.9197,457.91 -67.9197,463.91 -67.9197,469.91 -67.9197,469.91 -67.9197,613.91 -67.9197,613.91 -67.9197,619.91 -61.9197,625.91 -55.9197,625.91"/>
<text text-anchor="middle" x="0.580258" y="473.11" font-family="Times,serif" font-size="14.00">UniversitiesController</text>
<polyline fill="none" stroke="black" points="-67.9197,480.91 69.0803,480.91 "/>
<text text-anchor="start" x="-59.9197" y="496.11" font-family="Times,serif" font-size="14.00">create</text>
<text text-anchor="start" x="-59.9197" y="511.11" font-family="Times,serif" font-size="14.00">destroy</text>
<text text-anchor="start" x="-59.9197" y="526.11" font-family="Times,serif" font-size="14.00">edit</text>
<text text-anchor="start" x="-59.9197" y="541.11" font-family="Times,serif" font-size="14.00">index</text>
<text text-anchor="start" x="-59.9197" y="556.11" font-family="Times,serif" font-size="14.00">new</text>
<text text-anchor="start" x="-59.9197" y="571.11" font-family="Times,serif" font-size="14.00">show</text>
<polyline fill="none" stroke="black" points="-67.9197,578.91 69.0803,578.91 "/>
<polyline fill="none" stroke="black" points="-67.9197,602.91 69.0803,602.91 "/>
<text text-anchor="start" x="-59.9197" y="618.11" font-family="Times,serif" font-size="14.00">_layout</text>
</g>
<!-- ExamsController -->
<g id="node12" class="node"><title>ExamsController</title>
<path fill="none" stroke="black" d="M-376.594,614.397C-376.594,614.397 -290.594,614.397 -290.594,614.397 -284.594,614.397 -278.594,608.397 -278.594,602.397 -278.594,602.397 -278.594,488.397 -278.594,488.397 -278.594,482.397 -284.594,476.397 -290.594,476.397 -290.594,476.397 -376.594,476.397 -376.594,476.397 -382.594,476.397 -388.594,482.397 -388.594,488.397 -388.594,488.397 -388.594,602.397 -388.594,602.397 -388.594,608.397 -382.594,614.397 -376.594,614.397"/>
<text text-anchor="middle" x="-333.594" y="491.597" font-family="Times,serif" font-size="14.00">ExamsController</text>
<polyline fill="none" stroke="black" points="-388.594,499.397 -278.594,499.397 "/>
<text text-anchor="start" x="-380.594" y="514.597" font-family="Times,serif" font-size="14.00">create</text>
<text text-anchor="start" x="-380.594" y="529.597" font-family="Times,serif" font-size="14.00">destroy</text>
<text text-anchor="start" x="-380.594" y="544.597" font-family="Times,serif" font-size="14.00">edit</text>
<text text-anchor="start" x="-380.594" y="559.597" font-family="Times,serif" font-size="14.00">index</text>
<polyline fill="none" stroke="black" points="-388.594,567.397 -278.594,567.397 "/>
<polyline fill="none" stroke="black" points="-388.594,591.397 -278.594,591.397 "/>
<text text-anchor="start" x="-380.594" y="606.597" font-family="Times,serif" font-size="14.00">_layout</text>
</g>
<!-- ApplicationController -->
<g id="node13" class="node"><title>ApplicationController</title>
<path fill="none" stroke="black" d="M-251.578,306.229C-251.578,306.229 -81.5782,306.229 -81.5782,306.229 -75.5782,306.229 -69.5782,300.229 -69.5782,294.229 -69.5782,294.229 -69.5782,210.229 -69.5782,210.229 -69.5782,204.229 -75.5782,198.229 -81.5782,198.229 -81.5782,198.229 -251.578,198.229 -251.578,198.229 -257.578,198.229 -263.578,204.229 -263.578,210.229 -263.578,210.229 -263.578,294.229 -263.578,294.229 -263.578,300.229 -257.578,306.229 -251.578,306.229"/>
<text text-anchor="middle" x="-166.578" y="213.429" font-family="Times,serif" font-size="14.00">ApplicationController</text>
<polyline fill="none" stroke="black" points="-263.578,221.229 -69.5782,221.229 "/>
<polyline fill="none" stroke="black" points="-263.578,245.229 -69.5782,245.229 "/>
<text text-anchor="start" x="-255.578" y="260.429" font-family="Times,serif" font-size="14.00">configure_permitted_parameters</text>
<text text-anchor="start" x="-255.578" y="275.429" font-family="Times,serif" font-size="14.00">layout_by_resource</text>
<polyline fill="none" stroke="black" points="-263.578,283.229 -69.5782,283.229 "/>
<text text-anchor="start" x="-255.578" y="298.429" font-family="Times,serif" font-size="14.00">_layout</text>
</g>
<!-- ApplicationController&#45;&gt;LecturersController -->
<g id="edge7" class="edge"><title>ApplicationController&#45;&gt;LecturersController</title>
<path fill="none" stroke="black" d="M-263.711,238.422C-356.905,225.174 -494.796,205.573 -573.783,194.345"/>
</g>
<!-- ApplicationController&#45;&gt;CoursesController -->
<g id="edge8" class="edge"><title>ApplicationController&#45;&gt;CoursesController</title>
<path fill="none" stroke="black" d="M-85.3614,306.291C10.5473,370.132 167.698,474.739 252.302,531.055"/>
</g>
<!-- ApplicationController&#45;&gt;TesthomeController -->
<g id="edge9" class="edge"><title>ApplicationController&#45;&gt;TesthomeController</title>
<path fill="none" stroke="black" d="M-261.115,306.345C-363.175,364.767 -522.886,456.191 -610.735,506.479"/>
</g>
<!-- ApplicationController&#45;&gt;UniversitiesController -->
<g id="edge10" class="edge"><title>ApplicationController&#45;&gt;UniversitiesController</title>
<path fill="none" stroke="black" d="M-135.333,306.376C-110.764,348.953 -76.0997,409.026 -47.9285,457.845"/>
</g>
<!-- ApplicationController&#45;&gt;ExamsController -->
<g id="edge11" class="edge"><title>ApplicationController&#45;&gt;ExamsController</title>
<path fill="none" stroke="black" d="M-197.406,306.342C-224.693,354.239 -264.663,424.4 -294.25,476.334"/>
</g>
<!-- DeviseController -->
<g id="node14" class="node"><title>DeviseController</title>
<path fill="none" stroke="black" d="M-48.9165,199.295C-48.9165,199.295 118.084,199.295 118.084,199.295 124.084,199.295 130.084,193.295 130.084,187.295 130.084,187.295 130.084,-180.705 130.084,-180.705 130.084,-186.705 124.084,-192.705 118.084,-192.705 118.084,-192.705 -48.9165,-192.705 -48.9165,-192.705 -54.9165,-192.705 -60.9165,-186.705 -60.9165,-180.705 -60.9165,-180.705 -60.9165,187.295 -60.9165,187.295 -60.9165,193.295 -54.9165,199.295 -48.9165,199.295"/>
<text text-anchor="middle" x="34.5835" y="-177.505" font-family="Times,serif" font-size="14.00">DeviseController</text>
<polyline fill="none" stroke="black" points="-60.9165,-169.705 130.084,-169.705 "/>
<text text-anchor="start" x="-52.9165" y="-154.505" font-family="Times,serif" font-size="14.00">_prefixes</text>
<polyline fill="none" stroke="black" points="-60.9165,-146.705 130.084,-146.705 "/>
<text text-anchor="start" x="-52.9165" y="-131.505" font-family="Times,serif" font-size="14.00">assert_is_devise_resource!</text>
<text text-anchor="start" x="-52.9165" y="-116.505" font-family="Times,serif" font-size="14.00">clean_up_passwords</text>
<text text-anchor="start" x="-52.9165" y="-101.505" font-family="Times,serif" font-size="14.00">devise_i18n_options</text>
<text text-anchor="start" x="-52.9165" y="-86.5046" font-family="Times,serif" font-size="14.00">devise_mapping</text>
<text text-anchor="start" x="-52.9165" y="-71.5046" font-family="Times,serif" font-size="14.00">find_message</text>
<text text-anchor="start" x="-52.9165" y="-56.5046" font-family="Times,serif" font-size="14.00">navigational_formats</text>
<text text-anchor="start" x="-52.9165" y="-41.5046" font-family="Times,serif" font-size="14.00">require_no_authentication</text>
<text text-anchor="start" x="-52.9165" y="-26.5046" font-family="Times,serif" font-size="14.00">resource</text>
<text text-anchor="start" x="-52.9165" y="-11.5046" font-family="Times,serif" font-size="14.00">resource=</text>
<text text-anchor="start" x="-52.9165" y="3.49539" font-family="Times,serif" font-size="14.00">resource_class</text>
<text text-anchor="start" x="-52.9165" y="18.4954" font-family="Times,serif" font-size="14.00">resource_name</text>
<text text-anchor="start" x="-52.9165" y="33.4954" font-family="Times,serif" font-size="14.00">resource_params</text>
<text text-anchor="start" x="-52.9165" y="48.4954" font-family="Times,serif" font-size="14.00">respond_with_navigational</text>
<text text-anchor="start" x="-52.9165" y="63.4954" font-family="Times,serif" font-size="14.00">scope_name</text>
<text text-anchor="start" x="-52.9165" y="78.4954" font-family="Times,serif" font-size="14.00">set_flash_message</text>
<text text-anchor="start" x="-52.9165" y="93.4954" font-family="Times,serif" font-size="14.00">set_flash_message!</text>
<text text-anchor="start" x="-52.9165" y="108.495" font-family="Times,serif" font-size="14.00">set_minimum_password_length</text>
<text text-anchor="start" x="-52.9165" y="123.495" font-family="Times,serif" font-size="14.00">signed_in_resource</text>
<text text-anchor="start" x="-52.9165" y="138.495" font-family="Times,serif" font-size="14.00">successfully_sent?</text>
<text text-anchor="start" x="-52.9165" y="153.495" font-family="Times,serif" font-size="14.00">translation_scope</text>
<text text-anchor="start" x="-52.9165" y="168.495" font-family="Times,serif" font-size="14.00">unknown_action!</text>
<polyline fill="none" stroke="black" points="-60.9165,176.295 130.084,176.295 "/>
<text text-anchor="start" x="-52.9165" y="191.495" font-family="Times,serif" font-size="14.00">_layout</text>
</g>
<!-- ApplicationController&#45;&gt;DeviseController -->
<g id="edge12" class="edge"><title>ApplicationController&#45;&gt;DeviseController</title>
<path fill="none" stroke="black" d="M-122.929,198.214C-104.672,175.621 -82.6826,148.41 -61.0036,121.582"/>
</g>
<!-- Devise::RegistrationsController -->
<g id="node15" class="node"><title>Devise::RegistrationsController</title>
<path fill="none" stroke="black" d="M-443.723,-160.552C-443.723,-160.552 -274.723,-160.552 -274.723,-160.552 -268.723,-160.552 -262.723,-166.552 -262.723,-172.552 -262.723,-172.552 -262.723,-465.552 -262.723,-465.552 -262.723,-471.552 -268.723,-477.552 -274.723,-477.552 -274.723,-477.552 -443.723,-477.552 -443.723,-477.552 -449.723,-477.552 -455.723,-471.552 -455.723,-465.552 -455.723,-465.552 -455.723,-172.552 -455.723,-172.552 -455.723,-166.552 -449.723,-160.552 -443.723,-160.552"/>
<text text-anchor="middle" x="-359.223" y="-462.352" font-family="Times,serif" font-size="14.00">Devise::RegistrationsController</text>
<polyline fill="none" stroke="black" points="-455.723,-454.552 -262.723,-454.552 "/>
<text text-anchor="start" x="-447.723" y="-439.352" font-family="Times,serif" font-size="14.00">cancel</text>
<text text-anchor="start" x="-447.723" y="-424.352" font-family="Times,serif" font-size="14.00">create</text>
<text text-anchor="start" x="-447.723" y="-409.352" font-family="Times,serif" font-size="14.00">destroy</text>
<text text-anchor="start" x="-447.723" y="-394.352" font-family="Times,serif" font-size="14.00">edit</text>
<text text-anchor="start" x="-447.723" y="-379.352" font-family="Times,serif" font-size="14.00">new</text>
<text text-anchor="start" x="-447.723" y="-364.352" font-family="Times,serif" font-size="14.00">update</text>
<polyline fill="none" stroke="black" points="-455.723,-356.552 -262.723,-356.552 "/>
<text text-anchor="start" x="-447.723" y="-341.352" font-family="Times,serif" font-size="14.00">account_update_params</text>
<text text-anchor="start" x="-447.723" y="-326.352" font-family="Times,serif" font-size="14.00">after_inactive_sign_up_path_for</text>
<text text-anchor="start" x="-447.723" y="-311.352" font-family="Times,serif" font-size="14.00">after_sign_up_path_for</text>
<text text-anchor="start" x="-447.723" y="-296.352" font-family="Times,serif" font-size="14.00">after_update_path_for</text>
<text text-anchor="start" x="-447.723" y="-281.352" font-family="Times,serif" font-size="14.00">authenticate_scope!</text>
<text text-anchor="start" x="-447.723" y="-266.352" font-family="Times,serif" font-size="14.00">build_resource</text>
<text text-anchor="start" x="-447.723" y="-251.352" font-family="Times,serif" font-size="14.00">sign_up</text>
<text text-anchor="start" x="-447.723" y="-236.352" font-family="Times,serif" font-size="14.00">sign_up_params</text>
<text text-anchor="start" x="-447.723" y="-221.352" font-family="Times,serif" font-size="14.00">translation_scope</text>
<text text-anchor="start" x="-447.723" y="-206.352" font-family="Times,serif" font-size="14.00">update_needs_confirmation?</text>
<text text-anchor="start" x="-447.723" y="-191.352" font-family="Times,serif" font-size="14.00">update_resource</text>
<polyline fill="none" stroke="black" points="-455.723,-183.552 -262.723,-183.552 "/>
<text text-anchor="start" x="-447.723" y="-168.352" font-family="Times,serif" font-size="14.00">_layout</text>
</g>
<!-- DeviseController&#45;&gt;Devise::RegistrationsController -->
<g id="edge13" class="edge"><title>DeviseController&#45;&gt;Devise::RegistrationsController</title>
<path fill="none" stroke="black" d="M-60.9974,-74.9417C-122.122,-124.975 -201.153,-189.665 -262.499,-239.879"/>
</g>
<!-- Devise::ConfirmationsController -->
<g id="node16" class="node"><title>Devise::ConfirmationsController</title>
<path fill="none" stroke="black" d="M183.667,-146.87C183.667,-146.87 459.667,-146.87 459.667,-146.87 465.667,-146.87 471.667,-152.87 471.667,-158.87 471.667,-158.87 471.667,-286.87 471.667,-286.87 471.667,-292.87 465.667,-298.87 459.667,-298.87 459.667,-298.87 183.667,-298.87 183.667,-298.87 177.667,-298.87 171.667,-292.87 171.667,-286.87 171.667,-286.87 171.667,-158.87 171.667,-158.87 171.667,-152.87 177.667,-146.87 183.667,-146.87"/>
<text text-anchor="middle" x="321.667" y="-283.67" font-family="Times,serif" font-size="14.00">Devise::ConfirmationsController</text>
<polyline fill="none" stroke="black" points="171.667,-275.87 471.667,-275.87 "/>
<text text-anchor="start" x="179.667" y="-260.67" font-family="Times,serif" font-size="14.00">create</text>
<text text-anchor="start" x="179.667" y="-245.67" font-family="Times,serif" font-size="14.00">new</text>
<text text-anchor="start" x="179.667" y="-230.67" font-family="Times,serif" font-size="14.00">show</text>
<polyline fill="none" stroke="black" points="171.667,-222.87 471.667,-222.87 "/>
<text text-anchor="start" x="179.667" y="-207.67" font-family="Times,serif" font-size="14.00">after_confirmation_path_for</text>
<text text-anchor="start" x="179.667" y="-192.67" font-family="Times,serif" font-size="14.00">after_resending_confirmation_instructions_path_for</text>
<text text-anchor="start" x="179.667" y="-177.67" font-family="Times,serif" font-size="14.00">translation_scope</text>
<polyline fill="none" stroke="black" points="171.667,-169.87 471.667,-169.87 "/>
<text text-anchor="start" x="179.667" y="-154.67" font-family="Times,serif" font-size="14.00">_layout</text>
</g>
<!-- DeviseController&#45;&gt;Devise::ConfirmationsController -->
<g id="edge14" class="edge"><title>DeviseController&#45;&gt;Devise::ConfirmationsController</title>
<path fill="none" stroke="black" d="M130.178,-72.0146C160.68,-96.044 194.445,-122.644 225.021,-146.732"/>
</g>
<!-- Devise::SessionsController -->
<g id="node17" class="node"><title>Devise::SessionsController</title>
<path fill="none" stroke="black" d="M217.683,309.112C217.683,309.112 357.683,309.112 357.683,309.112 363.683,309.112 369.683,303.112 369.683,297.112 369.683,297.112 369.683,109.112 369.683,109.112 369.683,103.112 363.683,97.1117 357.683,97.1117 357.683,97.1117 217.683,97.1117 217.683,97.1117 211.683,97.1117 205.683,103.112 205.683,109.112 205.683,109.112 205.683,297.112 205.683,297.112 205.683,303.112 211.683,309.112 217.683,309.112"/>
<text text-anchor="middle" x="287.683" y="112.312" font-family="Times,serif" font-size="14.00">Devise::SessionsController</text>
<polyline fill="none" stroke="black" points="205.683,120.112 369.683,120.112 "/>
<text text-anchor="start" x="213.683" y="135.312" font-family="Times,serif" font-size="14.00">create</text>
<text text-anchor="start" x="213.683" y="150.312" font-family="Times,serif" font-size="14.00">destroy</text>
<text text-anchor="start" x="213.683" y="165.312" font-family="Times,serif" font-size="14.00">new</text>
<polyline fill="none" stroke="black" points="205.683,173.112 369.683,173.112 "/>
<text text-anchor="start" x="213.683" y="188.312" font-family="Times,serif" font-size="14.00">auth_options</text>
<text text-anchor="start" x="213.683" y="203.312" font-family="Times,serif" font-size="14.00">serialize_options</text>
<text text-anchor="start" x="213.683" y="218.312" font-family="Times,serif" font-size="14.00">sign_in_params</text>
<text text-anchor="start" x="213.683" y="233.312" font-family="Times,serif" font-size="14.00">translation_scope</text>
<polyline fill="none" stroke="black" points="205.683,241.112 369.683,241.112 "/>
<text text-anchor="start" x="213.683" y="256.312" font-family="Times,serif" font-size="14.00">_layout</text>
<text text-anchor="start" x="213.683" y="271.312" font-family="Times,serif" font-size="14.00">all_signed_out?</text>
<text text-anchor="start" x="213.683" y="286.312" font-family="Times,serif" font-size="14.00">respond_to_on_destroy</text>
<text text-anchor="start" x="213.683" y="301.312" font-family="Times,serif" font-size="14.00">verify_signed_out_user</text>
</g>
<!-- DeviseController&#45;&gt;Devise::SessionsController -->
<g id="edge15" class="edge"><title>DeviseController&#45;&gt;Devise::SessionsController</title>
<path fill="none" stroke="black" d="M130.269,78.8374C155.047,98.3988 181.506,119.287 205.522,138.248"/>
</g>
<!-- Devise::OmniauthCallbacksController -->
<g id="node18" class="node"><title>Devise::OmniauthCallbacksController</title>
<path fill="none" stroke="black" d="M100.919,-525.493C100.919,-525.493 301.919,-525.493 301.919,-525.493 307.919,-525.493 313.919,-531.493 313.919,-537.493 313.919,-537.493 313.919,-665.493 313.919,-665.493 313.919,-671.493 307.919,-677.493 301.919,-677.493 301.919,-677.493 100.919,-677.493 100.919,-677.493 94.9192,-677.493 88.9192,-671.493 88.9192,-665.493 88.9192,-665.493 88.9192,-537.493 88.9192,-537.493 88.9192,-531.493 94.9192,-525.493 100.919,-525.493"/>
<text text-anchor="middle" x="201.419" y="-662.293" font-family="Times,serif" font-size="14.00">Devise::OmniauthCallbacksController</text>
<polyline fill="none" stroke="black" points="88.9192,-654.493 313.919,-654.493 "/>
<text text-anchor="start" x="96.9192" y="-639.293" font-family="Times,serif" font-size="14.00">failure</text>
<text text-anchor="start" x="96.9192" y="-624.293" font-family="Times,serif" font-size="14.00">passthru</text>
<polyline fill="none" stroke="black" points="88.9192,-616.493 313.919,-616.493 "/>
<text text-anchor="start" x="96.9192" y="-601.293" font-family="Times,serif" font-size="14.00">after_omniauth_failure_path_for</text>
<text text-anchor="start" x="96.9192" y="-586.293" font-family="Times,serif" font-size="14.00">failed_strategy</text>
<text text-anchor="start" x="96.9192" y="-571.293" font-family="Times,serif" font-size="14.00">failure_message</text>
<text text-anchor="start" x="96.9192" y="-556.293" font-family="Times,serif" font-size="14.00">translation_scope</text>
<polyline fill="none" stroke="black" points="88.9192,-548.493 313.919,-548.493 "/>
<text text-anchor="start" x="96.9192" y="-533.293" font-family="Times,serif" font-size="14.00">_layout</text>
</g>
<!-- DeviseController&#45;&gt;Devise::OmniauthCallbacksController -->
<g id="edge16" class="edge"><title>DeviseController&#45;&gt;Devise::OmniauthCallbacksController</title>
<path fill="none" stroke="black" d="M129.245,-192.865C130.234,-195.795 131.193,-198.716 132.119,-201.626 166.978,-311.236 185.56,-443.658 194.448,-525.225"/>
</g>
<!-- Devise::PasswordsController -->
<g id="node19" class="node"><title>Devise::PasswordsController</title>
<path fill="none" stroke="black" d="M-161.081,-204.826C-161.081,-204.826 116.919,-204.826 116.919,-204.826 122.919,-204.826 128.919,-210.826 128.919,-216.826 128.919,-216.826 128.919,-389.826 128.919,-389.826 128.919,-395.826 122.919,-401.826 116.919,-401.826 116.919,-401.826 -161.081,-401.826 -161.081,-401.826 -167.081,-401.826 -173.081,-395.826 -173.081,-389.826 -173.081,-389.826 -173.081,-216.826 -173.081,-216.826 -173.081,-210.826 -167.081,-204.826 -161.081,-204.826"/>
<text text-anchor="middle" x="-22.0814" y="-386.626" font-family="Times,serif" font-size="14.00">Devise::PasswordsController</text>
<polyline fill="none" stroke="black" points="-173.081,-378.826 128.919,-378.826 "/>
<text text-anchor="start" x="-165.081" y="-363.626" font-family="Times,serif" font-size="14.00">create</text>
<text text-anchor="start" x="-165.081" y="-348.626" font-family="Times,serif" font-size="14.00">edit</text>
<text text-anchor="start" x="-165.081" y="-333.626" font-family="Times,serif" font-size="14.00">new</text>
<text text-anchor="start" x="-165.081" y="-318.626" font-family="Times,serif" font-size="14.00">update</text>
<polyline fill="none" stroke="black" points="-173.081,-310.826 128.919,-310.826 "/>
<text text-anchor="start" x="-165.081" y="-295.626" font-family="Times,serif" font-size="14.00">after_resetting_password_path_for</text>
<text text-anchor="start" x="-165.081" y="-280.626" font-family="Times,serif" font-size="14.00">after_sending_reset_password_instructions_path_for</text>
<text text-anchor="start" x="-165.081" y="-265.626" font-family="Times,serif" font-size="14.00">assert_reset_token_passed</text>
<text text-anchor="start" x="-165.081" y="-250.626" font-family="Times,serif" font-size="14.00">translation_scope</text>
<text text-anchor="start" x="-165.081" y="-235.626" font-family="Times,serif" font-size="14.00">unlockable?</text>
<polyline fill="none" stroke="black" points="-173.081,-227.826 128.919,-227.826 "/>
<text text-anchor="start" x="-165.081" y="-212.626" font-family="Times,serif" font-size="14.00">_layout</text>
</g>
<!-- DeviseController&#45;&gt;Devise::PasswordsController -->
<g id="edge17" class="edge"><title>DeviseController&#45;&gt;Devise::PasswordsController</title>
<path fill="none" stroke="black" d="M-1.70412,-193.062C-2.41763,-196.923 -3.12382,-200.744 -3.82066,-204.515"/>
</g>
<!-- Devise::UnlocksController -->
<g id="node20" class="node"><title>Devise::UnlocksController</title>
<path fill="none" stroke="black" d="M-439.16,67.8099C-439.16,67.8099 -207.16,67.8099 -207.16,67.8099 -201.16,67.8099 -195.16,61.8099 -195.16,55.8099 -195.16,55.8099 -195.16,-72.1901 -195.16,-72.1901 -195.16,-78.1901 -201.16,-84.1901 -207.16,-84.1901 -207.16,-84.1901 -439.16,-84.1901 -439.16,-84.1901 -445.16,-84.1901 -451.16,-78.1901 -451.16,-72.1901 -451.16,-72.1901 -451.16,55.8099 -451.16,55.8099 -451.16,61.8099 -445.16,67.8099 -439.16,67.8099"/>
<text text-anchor="middle" x="-323.16" y="-68.9901" font-family="Times,serif" font-size="14.00">Devise::UnlocksController</text>
<polyline fill="none" stroke="black" points="-451.16,-61.1901 -195.16,-61.1901 "/>
<text text-anchor="start" x="-443.16" y="-45.9901" font-family="Times,serif" font-size="14.00">create</text>
<text text-anchor="start" x="-443.16" y="-30.9901" font-family="Times,serif" font-size="14.00">new</text>
<text text-anchor="start" x="-443.16" y="-15.9901" font-family="Times,serif" font-size="14.00">show</text>
<polyline fill="none" stroke="black" points="-451.16,-8.19013 -195.16,-8.19013 "/>
<text text-anchor="start" x="-443.16" y="7.00987" font-family="Times,serif" font-size="14.00">after_sending_unlock_instructions_path_for</text>
<text text-anchor="start" x="-443.16" y="22.0099" font-family="Times,serif" font-size="14.00">after_unlock_path_for</text>
<text text-anchor="start" x="-443.16" y="37.0099" font-family="Times,serif" font-size="14.00">translation_scope</text>
<polyline fill="none" stroke="black" points="-451.16,44.8099 -195.16,44.8099 "/>
<text text-anchor="start" x="-443.16" y="60.0099" font-family="Times,serif" font-size="14.00">_layout</text>
</g>
<!-- DeviseController&#45;&gt;Devise::UnlocksController -->
<g id="edge18" class="edge"><title>DeviseController&#45;&gt;Devise::UnlocksController</title>
<path fill="none" stroke="black" d="M-61.2852,0.217481C-102.368,-1.10152 -150.958,-2.66151 -195.058,-4.07737"/>
</g>
<!-- Devise::RegistrationsController&#45;&gt;Users::RegistrationsController -->
<g id="edge1" class="edge"><title>Devise::RegistrationsController&#45;&gt;Users::RegistrationsController</title>
<path fill="none" stroke="black" d="M-455.951,-409.15C-502.027,-452.068 -555.228,-501.623 -593.217,-537.008"/>
</g>
<!-- Devise::ConfirmationsController&#45;&gt;Users::ConfirmationsController -->
<g id="edge2" class="edge"><title>Devise::ConfirmationsController&#45;&gt;Users::ConfirmationsController</title>
<path fill="none" stroke="black" d="M435.819,-146.604C472.98,-121.777 513.128,-94.954 546.157,-72.8871"/>
</g>
<!-- Devise::SessionsController&#45;&gt;Users::SessionsController -->
<g id="edge3" class="edge"><title>Devise::SessionsController&#45;&gt;Users::SessionsController</title>
<path fill="none" stroke="black" d="M369.951,269.07C429.431,316.758 508.373,380.049 561.622,422.741"/>
</g>
<!-- Devise::OmniauthCallbacksController&#45;&gt;Users::OmniauthCallbacksController -->
<g id="edge4" class="edge"><title>Devise::OmniauthCallbacksController&#45;&gt;Users::OmniauthCallbacksController</title>
<path fill="none" stroke="black" d="M314.035,-582.515C367.544,-573.498 431.247,-562.763 484.309,-553.822"/>
</g>
<!-- Devise::PasswordsController&#45;&gt;Users::PasswordsController -->
<g id="edge5" class="edge"><title>Devise::PasswordsController&#45;&gt;Users::PasswordsController</title>
<path fill="none" stroke="black" d="M-80.4784,-401.889C-114.291,-458.958 -155.307,-528.184 -181.974,-573.192"/>
</g>
<!-- Devise::UnlocksController&#45;&gt;Users::UnlocksController -->
<g id="edge6" class="edge"><title>Devise::UnlocksController&#45;&gt;Users::UnlocksController</title>
<path fill="none" stroke="black" d="M-451.323,-70.379C-503.503,-95.6985 -562.108,-124.135 -607.603,-146.211"/>
</g>
</g>
</svg>
