<?xml version="1.0" encoding="UTF-8" standalone="no"?>
<!DOCTYPE svg PUBLIC "-//W3C//DTD SVG 1.1//EN"
 "http://www.w3.org/Graphics/SVG/1.1/DTD/svg11.dtd">
<!-- Generated by graphviz version 2.38.0 (20140413.2041)
 -->
<!-- Title: controllers_diagram Pages: 1 -->
<svg width="1808pt" height="1478pt"
 viewBox="0.00 0.00 1808.43 1477.86" xmlns="http://www.w3.org/2000/svg" xmlns:xlink="http://www.w3.org/1999/xlink">
<g id="graph0" class="graph" transform="scale(1 1) rotate(0) translate(858.434 742.348)">
<title>controllers_diagram</title>
<polygon fill="none" stroke="none" points="-858.434,735.512 -858.434,-742.348 950,-742.348 950,735.512 -858.434,735.512"/>
<!-- _diagram_info -->
<g id="node1" class="node"><title>_diagram_info</title>
<text text-anchor="start" x="740" y="180.4" font-family="Times,serif" font-size="13.00">Controllers diagram</text>
<text text-anchor="start" x="740" y="194.4" font-family="Times,serif" font-size="13.00">Date: Nov 23 2016 &#45; 11:24</text>
<text text-anchor="start" x="740" y="208.4" font-family="Times,serif" font-size="13.00">Migration version: 20161122102742</text>
<text text-anchor="start" x="740" y="222.4" font-family="Times,serif" font-size="13.00">Generated by RailRoady 1.5.2</text>
<text text-anchor="start" x="740" y="236.4" font-family="Times,serif" font-size="13.00">http://railroady.prestonlee.com</text>
</g>
<!-- Users::RegistrationsController -->
<g id="node2" class="node"><title>Users::RegistrationsController</title>
<path fill="none" stroke="black" d="M-806.706,-591.95C-806.706,-591.95 -648.706,-591.95 -648.706,-591.95 -642.706,-591.95 -636.706,-597.95 -636.706,-603.95 -636.706,-603.95 -636.706,-673.95 -636.706,-673.95 -636.706,-679.95 -642.706,-685.95 -648.706,-685.95 -648.706,-685.95 -806.706,-685.95 -806.706,-685.95 -812.706,-685.95 -818.706,-679.95 -818.706,-673.95 -818.706,-673.95 -818.706,-603.95 -818.706,-603.95 -818.706,-597.95 -812.706,-591.95 -806.706,-591.95"/>
<text text-anchor="middle" x="-727.706" y="-670.75" font-family="Times,serif" font-size="14.00">Users::RegistrationsController</text>
<polyline fill="none" stroke="black" points="-818.706,-662.95 -636.706,-662.95 "/>
<polyline fill="none" stroke="black" points="-818.706,-638.95 -636.706,-638.95 "/>
<polyline fill="none" stroke="black" points="-818.706,-614.95 -636.706,-614.95 "/>
<text text-anchor="start" x="-810.706" y="-599.75" font-family="Times,serif" font-size="14.00">_layout</text>
</g>
<!-- Users::ConfirmationsController -->
<g id="node3" class="node"><title>Users::ConfirmationsController</title>
<path fill="none" stroke="black" d="M660.964,39.1548C660.964,39.1548 825.964,39.1548 825.964,39.1548 831.964,39.1548 837.964,33.1548 837.964,27.1548 837.964,27.1548 837.964,-42.8452 837.964,-42.8452 837.964,-48.8452 831.964,-54.8452 825.964,-54.8452 825.964,-54.8452 660.964,-54.8452 660.964,-54.8452 654.964,-54.8452 648.964,-48.8452 648.964,-42.8452 648.964,-42.8452 648.964,27.1548 648.964,27.1548 648.964,33.1548 654.964,39.1548 660.964,39.1548"/>
<text text-anchor="middle" x="743.464" y="-39.6452" font-family="Times,serif" font-size="14.00">Users::ConfirmationsController</text>
<polyline fill="none" stroke="black" points="648.964,-31.8452 837.964,-31.8452 "/>
<polyline fill="none" stroke="black" points="648.964,-7.84517 837.964,-7.84517 "/>
<polyline fill="none" stroke="black" points="648.964,16.1548 837.964,16.1548 "/>
<text text-anchor="start" x="656.964" y="31.3548" font-family="Times,serif" font-size="14.00">_layout</text>
</g>
<!-- Users::SessionsController -->
<g id="node4" class="node"><title>Users::SessionsController</title>
<path fill="none" stroke="black" d="M680.607,606.539C680.607,606.539 813.607,606.539 813.607,606.539 819.607,606.539 825.607,600.539 825.607,594.539 825.607,594.539 825.607,524.539 825.607,524.539 825.607,518.539 819.607,512.539 813.607,512.539 813.607,512.539 680.607,512.539 680.607,512.539 674.607,512.539 668.607,518.539 668.607,524.539 668.607,524.539 668.607,594.539 668.607,594.539 668.607,600.539 674.607,606.539 680.607,606.539"/>
<text text-anchor="middle" x="747.107" y="527.739" font-family="Times,serif" font-size="14.00">Users::SessionsController</text>
<polyline fill="none" stroke="black" points="668.607,535.539 825.607,535.539 "/>
<polyline fill="none" stroke="black" points="668.607,559.539 825.607,559.539 "/>
<polyline fill="none" stroke="black" points="668.607,583.539 825.607,583.539 "/>
<text text-anchor="start" x="676.607" y="598.739" font-family="Times,serif" font-size="14.00">_layout</text>
</g>
<!-- Users::OmniauthCallbacksController -->
<g id="node5" class="node"><title>Users::OmniauthCallbacksController</title>
<path fill="none" stroke="black" d="M619.269,-538.027C619.269,-538.027 813.269,-538.027 813.269,-538.027 819.269,-538.027 825.269,-544.027 825.269,-550.027 825.269,-550.027 825.269,-620.027 825.269,-620.027 825.269,-626.027 819.269,-632.027 813.269,-632.027 813.269,-632.027 619.269,-632.027 619.269,-632.027 613.269,-632.027 607.269,-626.027 607.269,-620.027 607.269,-620.027 607.269,-550.027 607.269,-550.027 607.269,-544.027 613.269,-538.027 619.269,-538.027"/>
<text text-anchor="middle" x="716.269" y="-616.827" font-family="Times,serif" font-size="14.00">Users::OmniauthCallbacksController</text>
<polyline fill="none" stroke="black" points="607.269,-609.027 825.269,-609.027 "/>
<polyline fill="none" stroke="black" points="607.269,-585.027 825.269,-585.027 "/>
<polyline fill="none" stroke="black" points="607.269,-561.027 825.269,-561.027 "/>
<text text-anchor="start" x="615.269" y="-545.827" font-family="Times,serif" font-size="14.00">_layout</text>
</g>
<!-- Users::PasswordsController -->
<g id="node6" class="node"><title>Users::PasswordsController</title>
<path fill="none" stroke="black" d="M-286.417,-630.957C-286.417,-630.957 -143.417,-630.957 -143.417,-630.957 -137.417,-630.957 -131.417,-636.957 -131.417,-642.957 -131.417,-642.957 -131.417,-712.957 -131.417,-712.957 -131.417,-718.957 -137.417,-724.957 -143.417,-724.957 -143.417,-724.957 -286.417,-724.957 -286.417,-724.957 -292.417,-724.957 -298.417,-718.957 -298.417,-712.957 -298.417,-712.957 -298.417,-642.957 -298.417,-642.957 -298.417,-636.957 -292.417,-630.957 -286.417,-630.957"/>
<text text-anchor="middle" x="-214.917" y="-709.757" font-family="Times,serif" font-size="14.00">Users::PasswordsController</text>
<polyline fill="none" stroke="black" points="-298.417,-701.957 -131.417,-701.957 "/>
<polyline fill="none" stroke="black" points="-298.417,-677.957 -131.417,-677.957 "/>
<polyline fill="none" stroke="black" points="-298.417,-653.957 -131.417,-653.957 "/>
<text text-anchor="start" x="-290.417" y="-638.757" font-family="Times,serif" font-size="14.00">_layout</text>
</g>
<!-- Users::UnlocksController -->
<g id="node7" class="node"><title>Users::UnlocksController</title>
<path fill="none" stroke="black" d="M-842.434,-130.759C-842.434,-130.759 -711.434,-130.759 -711.434,-130.759 -705.434,-130.759 -699.434,-136.759 -699.434,-142.759 -699.434,-142.759 -699.434,-212.759 -699.434,-212.759 -699.434,-218.759 -705.434,-224.759 -711.434,-224.759 -711.434,-224.759 -842.434,-224.759 -842.434,-224.759 -848.434,-224.759 -854.434,-218.759 -854.434,-212.759 -854.434,-212.759 -854.434,-142.759 -854.434,-142.759 -854.434,-136.759 -848.434,-130.759 -842.434,-130.759"/>
<text text-anchor="middle" x="-776.934" y="-209.559" font-family="Times,serif" font-size="14.00">Users::UnlocksController</text>
<polyline fill="none" stroke="black" points="-854.434,-201.759 -699.434,-201.759 "/>
<polyline fill="none" stroke="black" points="-854.434,-177.759 -699.434,-177.759 "/>
<polyline fill="none" stroke="black" points="-854.434,-153.759 -699.434,-153.759 "/>
<text text-anchor="start" x="-846.434" y="-138.559" font-family="Times,serif" font-size="14.00">_layout</text>
</g>
<!-- LecturersController -->
<g id="node8" class="node"><title>LecturersController</title>
<path fill="none" stroke="black" d="M-787.598,283.117C-787.598,283.117 -688.598,283.117 -688.598,283.117 -682.598,283.117 -676.598,277.117 -676.598,271.117 -676.598,271.117 -676.598,157.117 -676.598,157.117 -676.598,151.117 -682.598,145.117 -688.598,145.117 -688.598,145.117 -787.598,145.117 -787.598,145.117 -793.598,145.117 -799.598,151.117 -799.598,157.117 -799.598,157.117 -799.598,271.117 -799.598,271.117 -799.598,277.117 -793.598,283.117 -787.598,283.117"/>
<text text-anchor="middle" x="-738.098" y="160.317" font-family="Times,serif" font-size="14.00">LecturersController</text>
<polyline fill="none" stroke="black" points="-799.598,168.117 -676.598,168.117 "/>
<text text-anchor="start" x="-791.598" y="183.317" font-family="Times,serif" font-size="14.00">create</text>
<text text-anchor="start" x="-791.598" y="198.317" font-family="Times,serif" font-size="14.00">destroy</text>
<text text-anchor="start" x="-791.598" y="213.317" font-family="Times,serif" font-size="14.00">edit</text>
<text text-anchor="start" x="-791.598" y="228.317" font-family="Times,serif" font-size="14.00">index</text>
<polyline fill="none" stroke="black" points="-799.598,236.117 -676.598,236.117 "/>
<polyline fill="none" stroke="black" points="-799.598,260.117 -676.598,260.117 "/>
<text text-anchor="start" x="-791.598" y="275.317" font-family="Times,serif" font-size="14.00">_layout</text>
</g>
<!-- CoursesController -->
<g id="node9" class="node"><title>CoursesController</title>
<path fill="none" stroke="black" d="M309.538,730.455C309.538,730.455 401.538,730.455 401.538,730.455 407.538,730.455 413.538,724.455 413.538,718.455 413.538,718.455 413.538,604.455 413.538,604.455 413.538,598.455 407.538,592.455 401.538,592.455 401.538,592.455 309.538,592.455 309.538,592.455 303.538,592.455 297.538,598.455 297.538,604.455 297.538,604.455 297.538,718.455 297.538,718.455 297.538,724.455 303.538,730.455 309.538,730.455"/>
<text text-anchor="middle" x="355.538" y="607.655" font-family="Times,serif" font-size="14.00">CoursesController</text>
<polyline fill="none" stroke="black" points="297.538,615.455 413.538,615.455 "/>
<text text-anchor="start" x="305.538" y="630.655" font-family="Times,serif" font-size="14.00">create</text>
<text text-anchor="start" x="305.538" y="645.655" font-family="Times,serif" font-size="14.00">destroy</text>
<text text-anchor="start" x="305.538" y="660.655" font-family="Times,serif" font-size="14.00">edit</text>
<text text-anchor="start" x="305.538" y="675.655" font-family="Times,serif" font-size="14.00">index</text>
<polyline fill="none" stroke="black" points="297.538,683.455 413.538,683.455 "/>
<polyline fill="none" stroke="black" points="297.538,707.455 413.538,707.455 "/>
<text text-anchor="start" x="305.538" y="722.655" font-family="Times,serif" font-size="14.00">_layout</text>
</g>
<!-- TesthomeController -->
<g id="node10" class="node"><title>TesthomeController</title>
<path fill="none" stroke="black" d="M-813.614,687.282C-813.614,687.282 -711.614,687.282 -711.614,687.282 -705.614,687.282 -699.614,681.282 -699.614,675.282 -699.614,675.282 -699.614,606.282 -699.614,606.282 -699.614,600.282 -705.614,594.282 -711.614,594.282 -711.614,594.282 -813.614,594.282 -813.614,594.282 -819.614,594.282 -825.614,600.282 -825.614,606.282 -825.614,606.282 -825.614,675.282 -825.614,675.282 -825.614,681.282 -819.614,687.282 -813.614,687.282"/>
<text text-anchor="middle" x="-762.614" y="609.482" font-family="Times,serif" font-size="14.00">TesthomeController</text>
<polyline fill="none" stroke="black" points="-825.614,617.282 -699.614,617.282 "/>
<text text-anchor="start" x="-817.614" y="632.482" font-family="Times,serif" font-size="14.00">home</text>
<polyline fill="none" stroke="black" points="-825.614,640.282 -699.614,640.282 "/>
<polyline fill="none" stroke="black" points="-825.614,664.282 -699.614,664.282 "/>
<text text-anchor="start" x="-817.614" y="679.482" font-family="Times,serif" font-size="14.00">_layout</text>
</g>
<!-- UniversitiesController -->
<g id="node11" class="node"><title>UniversitiesController</title>
<path fill="none" stroke="black" d="M-54.947,731.012C-54.947,731.012 58.053,731.012 58.053,731.012 64.053,731.012 70.053,725.012 70.053,719.012 70.053,719.012 70.053,605.012 70.053,605.012 70.053,599.012 64.053,593.012 58.053,593.012 58.053,593.012 -54.947,593.012 -54.947,593.012 -60.947,593.012 -66.947,599.012 -66.947,605.012 -66.947,605.012 -66.947,719.012 -66.947,719.012 -66.947,725.012 -60.947,731.012 -54.947,731.012"/>
<text text-anchor="middle" x="1.55297" y="608.212" font-family="Times,serif" font-size="14.00">UniversitiesController</text>
<polyline fill="none" stroke="black" points="-66.947,616.012 70.053,616.012 "/>
<text text-anchor="start" x="-58.947" y="631.212" font-family="Times,serif" font-size="14.00">create</text>
<text text-anchor="start" x="-58.947" y="646.212" font-family="Times,serif" font-size="14.00">destroy</text>
<text text-anchor="start" x="-58.947" y="661.212" font-family="Times,serif" font-size="14.00">edit</text>
<text text-anchor="start" x="-58.947" y="676.212" font-family="Times,serif" font-size="14.00">index</text>
<polyline fill="none" stroke="black" points="-66.947,684.012 70.053,684.012 "/>
<polyline fill="none" stroke="black" points="-66.947,708.012 70.053,708.012 "/>
<text text-anchor="start" x="-58.947" y="723.212" font-family="Times,serif" font-size="14.00">_layout</text>
</g>
<!-- ExamsController -->
<g id="node12" class="node"><title>ExamsController</title>
<path fill="none" stroke="black" d="M-395.122,676.975C-395.122,676.975 -309.122,676.975 -309.122,676.975 -303.122,676.975 -297.122,670.975 -297.122,664.975 -297.122,664.975 -297.122,550.975 -297.122,550.975 -297.122,544.975 -303.122,538.975 -309.122,538.975 -309.122,538.975 -395.122,538.975 -395.122,538.975 -401.122,538.975 -407.122,544.975 -407.122,550.975 -407.122,550.975 -407.122,664.975 -407.122,664.975 -407.122,670.975 -401.122,676.975 -395.122,676.975"/>
<text text-anchor="middle" x="-352.122" y="554.175" font-family="Times,serif" font-size="14.00">ExamsController</text>
<polyline fill="none" stroke="black" points="-407.122,561.975 -297.122,561.975 "/>
<text text-anchor="start" x="-399.122" y="577.175" font-family="Times,serif" font-size="14.00">create</text>
<text text-anchor="start" x="-399.122" y="592.175" font-family="Times,serif" font-size="14.00">destroy</text>
<text text-anchor="start" x="-399.122" y="607.175" font-family="Times,serif" font-size="14.00">edit</text>
<text text-anchor="start" x="-399.122" y="622.175" font-family="Times,serif" font-size="14.00">index</text>
<polyline fill="none" stroke="black" points="-407.122,629.975 -297.122,629.975 "/>
<polyline fill="none" stroke="black" points="-407.122,653.975 -297.122,653.975 "/>
<text text-anchor="start" x="-399.122" y="669.175" font-family="Times,serif" font-size="14.00">_layout</text>
</g>
<!-- ApplicationController -->
<g id="node13" class="node"><title>ApplicationController</title>
<path fill="none" stroke="black" d="M-139.857,339.297C-139.857,339.297 -27.857,339.297 -27.857,339.297 -21.857,339.297 -15.857,333.297 -15.857,327.297 -15.857,327.297 -15.857,257.297 -15.857,257.297 -15.857,251.297 -21.857,245.297 -27.857,245.297 -27.857,245.297 -139.857,245.297 -139.857,245.297 -145.857,245.297 -151.857,251.297 -151.857,257.297 -151.857,257.297 -151.857,327.297 -151.857,327.297 -151.857,333.297 -145.857,339.297 -139.857,339.297"/>
<text text-anchor="middle" x="-83.857" y="260.497" font-family="Times,serif" font-size="14.00">ApplicationController</text>
<polyline fill="none" stroke="black" points="-151.857,268.297 -15.857,268.297 "/>
<polyline fill="none" stroke="black" points="-151.857,292.297 -15.857,292.297 "/>
<polyline fill="none" stroke="black" points="-151.857,316.297 -15.857,316.297 "/>
<text text-anchor="start" x="-143.857" y="331.497" font-family="Times,serif" font-size="14.00">_layout</text>
</g>
<!-- ApplicationController&#45;&gt;LecturersController -->
<g id="edge7" class="edge"><title>ApplicationController&#45;&gt;LecturersController</title>
<path fill="none" stroke="black" d="M-152.021,284.152C-279.824,268.88 -553.601,236.164 -676.341,221.497"/>
</g>
<!-- ApplicationController&#45;&gt;CoursesController -->
<g id="edge8" class="edge"><title>ApplicationController&#45;&gt;CoursesController</title>
<path fill="none" stroke="black" d="M-27.761,339.426C55.875,409.693 212.487,541.271 297.332,612.553"/>
</g>
<!-- ApplicationController&#45;&gt;TesthomeController -->
<g id="edge9" class="edge"><title>ApplicationController&#45;&gt;TesthomeController</title>
<path fill="none" stroke="black" d="M-152.047,327.307C-283.829,394.966 -571.723,542.776 -699.434,608.345"/>
</g>
<!-- ApplicationController&#45;&gt;UniversitiesController -->
<g id="edge10" class="edge"><title>ApplicationController&#45;&gt;UniversitiesController</title>
<path fill="none" stroke="black" d="M-72.953,339.498C-58.1349,403.641 -31.5317,518.798 -14.4492,592.743"/>
</g>
<!-- ApplicationController&#45;&gt;ExamsController -->
<g id="edge11" class="edge"><title>ApplicationController&#45;&gt;ExamsController</title>
<path fill="none" stroke="black" d="M-124.019,339.557C-169.988,393.651 -245.55,482.567 -297.004,543.115"/>
</g>
<!-- DeviseController -->
<g id="node14" class="node"><title>DeviseController</title>
<path fill="none" stroke="black" d="M-35.3254,196.563C-35.3254,196.563 131.675,196.563 131.675,196.563 137.675,196.563 143.675,190.563 143.675,184.563 143.675,184.563 143.675,-183.437 143.675,-183.437 143.675,-189.437 137.675,-195.437 131.675,-195.437 131.675,-195.437 -35.3254,-195.437 -35.3254,-195.437 -41.3254,-195.437 -47.3254,-189.437 -47.3254,-183.437 -47.3254,-183.437 -47.3254,184.563 -47.3254,184.563 -47.3254,190.563 -41.3254,196.563 -35.3254,196.563"/>
<text text-anchor="middle" x="48.1746" y="-180.237" font-family="Times,serif" font-size="14.00">DeviseController</text>
<polyline fill="none" stroke="black" points="-47.3254,-172.437 143.675,-172.437 "/>
<text text-anchor="start" x="-39.3254" y="-157.237" font-family="Times,serif" font-size="14.00">_prefixes</text>
<polyline fill="none" stroke="black" points="-47.3254,-149.437 143.675,-149.437 "/>
<text text-anchor="start" x="-39.3254" y="-134.237" font-family="Times,serif" font-size="14.00">assert_is_devise_resource!</text>
<text text-anchor="start" x="-39.3254" y="-119.237" font-family="Times,serif" font-size="14.00">clean_up_passwords</text>
<text text-anchor="start" x="-39.3254" y="-104.237" font-family="Times,serif" font-size="14.00">devise_i18n_options</text>
<text text-anchor="start" x="-39.3254" y="-89.2372" font-family="Times,serif" font-size="14.00">devise_mapping</text>
<text text-anchor="start" x="-39.3254" y="-74.2372" font-family="Times,serif" font-size="14.00">find_message</text>
<text text-anchor="start" x="-39.3254" y="-59.2372" font-family="Times,serif" font-size="14.00">navigational_formats</text>
<text text-anchor="start" x="-39.3254" y="-44.2372" font-family="Times,serif" font-size="14.00">require_no_authentication</text>
<text text-anchor="start" x="-39.3254" y="-29.2372" font-family="Times,serif" font-size="14.00">resource</text>
<text text-anchor="start" x="-39.3254" y="-14.2372" font-family="Times,serif" font-size="14.00">resource=</text>
<text text-anchor="start" x="-39.3254" y="0.762806" font-family="Times,serif" font-size="14.00">resource_class</text>
<text text-anchor="start" x="-39.3254" y="15.7628" font-family="Times,serif" font-size="14.00">resource_name</text>
<text text-anchor="start" x="-39.3254" y="30.7628" font-family="Times,serif" font-size="14.00">resource_params</text>
<text text-anchor="start" x="-39.3254" y="45.7628" font-family="Times,serif" font-size="14.00">respond_with_navigational</text>
<text text-anchor="start" x="-39.3254" y="60.7628" font-family="Times,serif" font-size="14.00">scope_name</text>
<text text-anchor="start" x="-39.3254" y="75.7628" font-family="Times,serif" font-size="14.00">set_flash_message</text>
<text text-anchor="start" x="-39.3254" y="90.7628" font-family="Times,serif" font-size="14.00">set_flash_message!</text>
<text text-anchor="start" x="-39.3254" y="105.763" font-family="Times,serif" font-size="14.00">set_minimum_password_length</text>
<text text-anchor="start" x="-39.3254" y="120.763" font-family="Times,serif" font-size="14.00">signed_in_resource</text>
<text text-anchor="start" x="-39.3254" y="135.763" font-family="Times,serif" font-size="14.00">successfully_sent?</text>
<text text-anchor="start" x="-39.3254" y="150.763" font-family="Times,serif" font-size="14.00">translation_scope</text>
<text text-anchor="start" x="-39.3254" y="165.763" font-family="Times,serif" font-size="14.00">unknown_action!</text>
<polyline fill="none" stroke="black" points="-47.3254,173.563 143.675,173.563 "/>
<text text-anchor="start" x="-39.3254" y="188.763" font-family="Times,serif" font-size="14.00">_layout</text>
</g>
<!-- ApplicationController&#45;&gt;DeviseController -->
<g id="edge12" class="edge"><title>ApplicationController&#45;&gt;DeviseController</title>
<path fill="none" stroke="black" d="M-62.4971,245.101C-56.0745,230.91 -48.5903,214.373 -40.5992,196.716"/>
</g>
<!-- Devise::RegistrationsController -->
<g id="node15" class="node"><title>Devise::RegistrationsController</title>
<path fill="none" stroke="black" d="M-449.423,-134.206C-449.423,-134.206 -280.423,-134.206 -280.423,-134.206 -274.423,-134.206 -268.423,-140.206 -268.423,-146.206 -268.423,-146.206 -268.423,-439.206 -268.423,-439.206 -268.423,-445.206 -274.423,-451.206 -280.423,-451.206 -280.423,-451.206 -449.423,-451.206 -449.423,-451.206 -455.423,-451.206 -461.423,-445.206 -461.423,-439.206 -461.423,-439.206 -461.423,-146.206 -461.423,-146.206 -461.423,-140.206 -455.423,-134.206 -449.423,-134.206"/>
<text text-anchor="middle" x="-364.923" y="-436.006" font-family="Times,serif" font-size="14.00">Devise::RegistrationsController</text>
<polyline fill="none" stroke="black" points="-461.423,-428.206 -268.423,-428.206 "/>
<text text-anchor="start" x="-453.423" y="-413.006" font-family="Times,serif" font-size="14.00">cancel</text>
<text text-anchor="start" x="-453.423" y="-398.006" font-family="Times,serif" font-size="14.00">create</text>
<text text-anchor="start" x="-453.423" y="-383.006" font-family="Times,serif" font-size="14.00">destroy</text>
<text text-anchor="start" x="-453.423" y="-368.006" font-family="Times,serif" font-size="14.00">edit</text>
<text text-anchor="start" x="-453.423" y="-353.006" font-family="Times,serif" font-size="14.00">new</text>
<text text-anchor="start" x="-453.423" y="-338.006" font-family="Times,serif" font-size="14.00">update</text>
<polyline fill="none" stroke="black" points="-461.423,-330.206 -268.423,-330.206 "/>
<text text-anchor="start" x="-453.423" y="-315.006" font-family="Times,serif" font-size="14.00">account_update_params</text>
<text text-anchor="start" x="-453.423" y="-300.006" font-family="Times,serif" font-size="14.00">after_inactive_sign_up_path_for</text>
<text text-anchor="start" x="-453.423" y="-285.006" font-family="Times,serif" font-size="14.00">after_sign_up_path_for</text>
<text text-anchor="start" x="-453.423" y="-270.006" font-family="Times,serif" font-size="14.00">after_update_path_for</text>
<text text-anchor="start" x="-453.423" y="-255.006" font-family="Times,serif" font-size="14.00">authenticate_scope!</text>
<text text-anchor="start" x="-453.423" y="-240.006" font-family="Times,serif" font-size="14.00">build_resource</text>
<text text-anchor="start" x="-453.423" y="-225.006" font-family="Times,serif" font-size="14.00">sign_up</text>
<text text-anchor="start" x="-453.423" y="-210.006" font-family="Times,serif" font-size="14.00">sign_up_params</text>
<text text-anchor="start" x="-453.423" y="-195.006" font-family="Times,serif" font-size="14.00">translation_scope</text>
<text text-anchor="start" x="-453.423" y="-180.006" font-family="Times,serif" font-size="14.00">update_needs_confirmation?</text>
<text text-anchor="start" x="-453.423" y="-165.006" font-family="Times,serif" font-size="14.00">update_resource</text>
<polyline fill="none" stroke="black" points="-461.423,-157.206 -268.423,-157.206 "/>
<text text-anchor="start" x="-453.423" y="-142.006" font-family="Times,serif" font-size="14.00">_layout</text>
</g>
<!-- DeviseController&#45;&gt;Devise::RegistrationsController -->
<g id="edge13" class="edge"><title>DeviseController&#45;&gt;Devise::RegistrationsController</title>
<path fill="none" stroke="black" d="M-47.3768,-67.2716C-113.628,-114.305 -201.552,-176.724 -268.081,-223.955"/>
</g>
<!-- Devise::ConfirmationsController -->
<g id="node16" class="node"><title>Devise::ConfirmationsController</title>
<path fill="none" stroke="black" d="M232.453,-140.644C232.453,-140.644 508.453,-140.644 508.453,-140.644 514.453,-140.644 520.453,-146.644 520.453,-152.644 520.453,-152.644 520.453,-280.644 520.453,-280.644 520.453,-286.644 514.453,-292.644 508.453,-292.644 508.453,-292.644 232.453,-292.644 232.453,-292.644 226.453,-292.644 220.453,-286.644 220.453,-280.644 220.453,-280.644 220.453,-152.644 220.453,-152.644 220.453,-146.644 226.453,-140.644 232.453,-140.644"/>
<text text-anchor="middle" x="370.453" y="-277.444" font-family="Times,serif" font-size="14.00">Devise::ConfirmationsController</text>
<polyline fill="none" stroke="black" points="220.453,-269.644 520.453,-269.644 "/>
<text text-anchor="start" x="228.453" y="-254.444" font-family="Times,serif" font-size="14.00">create</text>
<text text-anchor="start" x="228.453" y="-239.444" font-family="Times,serif" font-size="14.00">new</text>
<text text-anchor="start" x="228.453" y="-224.444" font-family="Times,serif" font-size="14.00">show</text>
<polyline fill="none" stroke="black" points="220.453,-216.644 520.453,-216.644 "/>
<text text-anchor="start" x="228.453" y="-201.444" font-family="Times,serif" font-size="14.00">after_confirmation_path_for</text>
<text text-anchor="start" x="228.453" y="-186.444" font-family="Times,serif" font-size="14.00">after_resending_confirmation_instructions_path_for</text>
<text text-anchor="start" x="228.453" y="-171.444" font-family="Times,serif" font-size="14.00">translation_scope</text>
<polyline fill="none" stroke="black" points="220.453,-163.644 520.453,-163.644 "/>
<text text-anchor="start" x="228.453" y="-148.444" font-family="Times,serif" font-size="14.00">_layout</text>
</g>
<!-- DeviseController&#45;&gt;Devise::ConfirmationsController -->
<g id="edge14" class="edge"><title>DeviseController&#45;&gt;Devise::ConfirmationsController</title>
<path fill="none" stroke="black" d="M143.996,-64.0183C179.713,-88.0908 220.585,-115.637 257.685,-140.642"/>
</g>
<!-- Devise::SessionsController -->
<g id="node17" class="node"><title>Devise::SessionsController</title>
<path fill="none" stroke="black" d="M269.964,330.744C269.964,330.744 409.964,330.744 409.964,330.744 415.964,330.744 421.964,324.744 421.964,318.744 421.964,318.744 421.964,130.744 421.964,130.744 421.964,124.744 415.964,118.744 409.964,118.744 409.964,118.744 269.964,118.744 269.964,118.744 263.964,118.744 257.964,124.744 257.964,130.744 257.964,130.744 257.964,318.744 257.964,318.744 257.964,324.744 263.964,330.744 269.964,330.744"/>
<text text-anchor="middle" x="339.964" y="133.944" font-family="Times,serif" font-size="14.00">Devise::SessionsController</text>
<polyline fill="none" stroke="black" points="257.964,141.744 421.964,141.744 "/>
<text text-anchor="start" x="265.964" y="156.944" font-family="Times,serif" font-size="14.00">create</text>
<text text-anchor="start" x="265.964" y="171.944" font-family="Times,serif" font-size="14.00">destroy</text>
<text text-anchor="start" x="265.964" y="186.944" font-family="Times,serif" font-size="14.00">new</text>
<polyline fill="none" stroke="black" points="257.964,194.744 421.964,194.744 "/>
<text text-anchor="start" x="265.964" y="209.944" font-family="Times,serif" font-size="14.00">auth_options</text>
<text text-anchor="start" x="265.964" y="224.944" font-family="Times,serif" font-size="14.00">serialize_options</text>
<text text-anchor="start" x="265.964" y="239.944" font-family="Times,serif" font-size="14.00">sign_in_params</text>
<text text-anchor="start" x="265.964" y="254.944" font-family="Times,serif" font-size="14.00">translation_scope</text>
<polyline fill="none" stroke="black" points="257.964,262.744 421.964,262.744 "/>
<text text-anchor="start" x="265.964" y="277.944" font-family="Times,serif" font-size="14.00">_layout</text>
<text text-anchor="start" x="265.964" y="292.944" font-family="Times,serif" font-size="14.00">all_signed_out?</text>
<text text-anchor="start" x="265.964" y="307.944" font-family="Times,serif" font-size="14.00">respond_to_on_destroy</text>
<text text-anchor="start" x="265.964" y="322.944" font-family="Times,serif" font-size="14.00">verify_signed_out_user</text>
</g>
<!-- DeviseController&#45;&gt;Devise::SessionsController -->
<g id="edge15" class="edge"><title>DeviseController&#45;&gt;Devise::SessionsController</title>
<path fill="none" stroke="black" d="M143.717,73.9681C180.615,102.317 222.411,134.428 257.92,161.71"/>
</g>
<!-- Devise::OmniauthCallbacksController -->
<g id="node18" class="node"><title>Devise::OmniauthCallbacksController</title>
<path fill="none" stroke="black" d="M140.641,-585.848C140.641,-585.848 341.641,-585.848 341.641,-585.848 347.641,-585.848 353.641,-591.848 353.641,-597.848 353.641,-597.848 353.641,-725.848 353.641,-725.848 353.641,-731.848 347.641,-737.848 341.641,-737.848 341.641,-737.848 140.641,-737.848 140.641,-737.848 134.641,-737.848 128.641,-731.848 128.641,-725.848 128.641,-725.848 128.641,-597.848 128.641,-597.848 128.641,-591.848 134.641,-585.848 140.641,-585.848"/>
<text text-anchor="middle" x="241.141" y="-722.648" font-family="Times,serif" font-size="14.00">Devise::OmniauthCallbacksController</text>
<polyline fill="none" stroke="black" points="128.641,-714.848 353.641,-714.848 "/>
<text text-anchor="start" x="136.641" y="-699.648" font-family="Times,serif" font-size="14.00">failure</text>
<text text-anchor="start" x="136.641" y="-684.648" font-family="Times,serif" font-size="14.00">passthru</text>
<polyline fill="none" stroke="black" points="128.641,-676.848 353.641,-676.848 "/>
<text text-anchor="start" x="136.641" y="-661.648" font-family="Times,serif" font-size="14.00">after_omniauth_failure_path_for</text>
<text text-anchor="start" x="136.641" y="-646.648" font-family="Times,serif" font-size="14.00">failed_strategy</text>
<text text-anchor="start" x="136.641" y="-631.648" font-family="Times,serif" font-size="14.00">failure_message</text>
<text text-anchor="start" x="136.641" y="-616.648" font-family="Times,serif" font-size="14.00">translation_scope</text>
<polyline fill="none" stroke="black" points="128.641,-608.848 353.641,-608.848 "/>
<text text-anchor="start" x="136.641" y="-593.648" font-family="Times,serif" font-size="14.00">_layout</text>
</g>
<!-- DeviseController&#45;&gt;Devise::OmniauthCallbacksController -->
<g id="edge16" class="edge"><title>DeviseController&#45;&gt;Devise::OmniauthCallbacksController</title>
<path fill="none" stroke="black" d="M143.707,-194.744C145.429,-199.476 147.083,-204.19 148.657,-208.872 192.017,-337.825 218.503,-494.596 231.451,-585.816"/>
</g>
<!-- Devise::PasswordsController -->
<g id="node19" class="node"><title>Devise::PasswordsController</title>
<path fill="none" stroke="black" d="M-144.543,-212.072C-144.543,-212.072 133.457,-212.072 133.457,-212.072 139.457,-212.072 145.457,-218.072 145.457,-224.072 145.457,-224.072 145.457,-397.072 145.457,-397.072 145.457,-403.072 139.457,-409.072 133.457,-409.072 133.457,-409.072 -144.543,-409.072 -144.543,-409.072 -150.543,-409.072 -156.543,-403.072 -156.543,-397.072 -156.543,-397.072 -156.543,-224.072 -156.543,-224.072 -156.543,-218.072 -150.543,-212.072 -144.543,-212.072"/>
<text text-anchor="middle" x="-5.54288" y="-393.872" font-family="Times,serif" font-size="14.00">Devise::PasswordsController</text>
<polyline fill="none" stroke="black" points="-156.543,-386.072 145.457,-386.072 "/>
<text text-anchor="start" x="-148.543" y="-370.872" font-family="Times,serif" font-size="14.00">create</text>
<text text-anchor="start" x="-148.543" y="-355.872" font-family="Times,serif" font-size="14.00">edit</text>
<text text-anchor="start" x="-148.543" y="-340.872" font-family="Times,serif" font-size="14.00">new</text>
<text text-anchor="start" x="-148.543" y="-325.872" font-family="Times,serif" font-size="14.00">update</text>
<polyline fill="none" stroke="black" points="-156.543,-318.072 145.457,-318.072 "/>
<text text-anchor="start" x="-148.543" y="-302.872" font-family="Times,serif" font-size="14.00">after_resetting_password_path_for</text>
<text text-anchor="start" x="-148.543" y="-287.872" font-family="Times,serif" font-size="14.00">after_sending_reset_password_instructions_path_for</text>
<text text-anchor="start" x="-148.543" y="-272.872" font-family="Times,serif" font-size="14.00">assert_reset_token_passed</text>
<text text-anchor="start" x="-148.543" y="-257.872" font-family="Times,serif" font-size="14.00">translation_scope</text>
<text text-anchor="start" x="-148.543" y="-242.872" font-family="Times,serif" font-size="14.00">unlockable?</text>
<polyline fill="none" stroke="black" points="-156.543,-235.072 145.457,-235.072 "/>
<text text-anchor="start" x="-148.543" y="-219.872" font-family="Times,serif" font-size="14.00">_layout</text>
</g>
<!-- DeviseController&#45;&gt;Devise::PasswordsController -->
<g id="edge17" class="edge"><title>DeviseController&#45;&gt;Devise::PasswordsController</title>
<path fill="none" stroke="black" d="M14.3069,-195.601C13.3641,-201.062 12.4337,-206.451 11.5208,-211.738"/>
</g>
<!-- Devise::UnlocksController -->
<g id="node20" class="node"><title>Devise::UnlocksController</title>
<path fill="none" stroke="black" d="M-458.89,143.774C-458.89,143.774 -226.89,143.774 -226.89,143.774 -220.89,143.774 -214.89,137.774 -214.89,131.774 -214.89,131.774 -214.89,3.77379 -214.89,3.77379 -214.89,-2.22621 -220.89,-8.22621 -226.89,-8.22621 -226.89,-8.22621 -458.89,-8.22621 -458.89,-8.22621 -464.89,-8.22621 -470.89,-2.22621 -470.89,3.77379 -470.89,3.77379 -470.89,131.774 -470.89,131.774 -470.89,137.774 -464.89,143.774 -458.89,143.774"/>
<text text-anchor="middle" x="-342.89" y="6.97379" font-family="Times,serif" font-size="14.00">Devise::UnlocksController</text>
<polyline fill="none" stroke="black" points="-470.89,14.7738 -214.89,14.7738 "/>
<text text-anchor="start" x="-462.89" y="29.9738" font-family="Times,serif" font-size="14.00">create</text>
<text text-anchor="start" x="-462.89" y="44.9738" font-family="Times,serif" font-size="14.00">new</text>
<text text-anchor="start" x="-462.89" y="59.9738" font-family="Times,serif" font-size="14.00">show</text>
<polyline fill="none" stroke="black" points="-470.89,67.7738 -214.89,67.7738 "/>
<text text-anchor="start" x="-462.89" y="82.9738" font-family="Times,serif" font-size="14.00">after_sending_unlock_instructions_path_for</text>
<text text-anchor="start" x="-462.89" y="97.9738" font-family="Times,serif" font-size="14.00">after_unlock_path_for</text>
<text text-anchor="start" x="-462.89" y="112.974" font-family="Times,serif" font-size="14.00">translation_scope</text>
<polyline fill="none" stroke="black" points="-470.89,120.774 -214.89,120.774 "/>
<text text-anchor="start" x="-462.89" y="135.974" font-family="Times,serif" font-size="14.00">_layout</text>
</g>
<!-- DeviseController&#45;&gt;Devise::UnlocksController -->
<g id="edge18" class="edge"><title>DeviseController&#45;&gt;Devise::UnlocksController</title>
<path fill="none" stroke="black" d="M-47.4907,17.0045C-97.8027,25.6514 -160.173,36.3708 -214.62,45.7284"/>
</g>
<!-- Devise::RegistrationsController&#45;&gt;Users::RegistrationsController -->
<g id="edge1" class="edge"><title>Devise::RegistrationsController&#45;&gt;Users::RegistrationsController</title>
<path fill="none" stroke="black" d="M-461.666,-385.038C-531.353,-451.548 -622.527,-538.566 -678.02,-591.53"/>
</g>
<!-- Devise::ConfirmationsController&#45;&gt;Users::ConfirmationsController -->
<g id="edge2" class="edge"><title>Devise::ConfirmationsController&#45;&gt;Users::ConfirmationsController</title>
<path fill="none" stroke="black" d="M506.438,-140.524C557.658,-111.853 614.376,-80.1041 659.485,-54.8536"/>
</g>
<!-- Devise::SessionsController&#45;&gt;Users::SessionsController -->
<g id="edge3" class="edge"><title>Devise::SessionsController&#45;&gt;Users::SessionsController</title>
<path fill="none" stroke="black" d="M422.355,292.495C501.822,357.841 620.025,455.039 689.758,512.381"/>
</g>
<!-- Devise::OmniauthCallbacksController&#45;&gt;Users::OmniauthCallbacksController -->
<g id="edge4" class="edge"><title>Devise::OmniauthCallbacksController&#45;&gt;Users::OmniauthCallbacksController</title>
<path fill="none" stroke="black" d="M353.739,-643.643C430.302,-631.264 531.073,-614.971 606.934,-602.705"/>
</g>
<!-- Devise::PasswordsController&#45;&gt;Users::PasswordsController -->
<g id="edge5" class="edge"><title>Devise::PasswordsController&#45;&gt;Users::PasswordsController</title>
<path fill="none" stroke="black" d="M-61.9267,-409.508C-102.865,-481.342 -156.426,-575.324 -188.103,-630.907"/>
</g>
<!-- Devise::UnlocksController&#45;&gt;Users::UnlocksController -->
<g id="edge6" class="edge"><title>Devise::UnlocksController&#45;&gt;Users::UnlocksController</title>
<path fill="none" stroke="black" d="M-471.063,-4.73182C-545.194,-46.6669 -636.043,-98.0588 -699.386,-133.891"/>
</g>
</g>
</svg>
