<?xml version="1.0" encoding="UTF-8" standalone="no"?>
<!DOCTYPE svg PUBLIC "-//W3C//DTD SVG 1.1//EN"
 "http://www.w3.org/Graphics/SVG/1.1/DTD/svg11.dtd">
<!-- Generated by graphviz version 2.38.0 (20140413.2041)
 -->
<!-- Title: controllers_diagram Pages: 1 -->
<svg width="724pt" height="753pt"
 viewBox="0.00 0.00 723.50 752.50" xmlns="http://www.w3.org/2000/svg" xmlns:xlink="http://www.w3.org/1999/xlink">
<g id="graph0" class="graph" transform="scale(1 1) rotate(0) translate(260 444.5)">
<title>controllers_diagram</title>
<polygon fill="none" stroke="none" points="-260,308 -260,-444.5 463.5,-444.5 463.5,308 -260,308"/>
<!-- _diagram_info -->
<g id="node1" class="node"><title>_diagram_info</title>
<text text-anchor="start" x="-152" y="-223.6" font-family="Times,serif" font-size="13.00">Controllers diagram</text>
<text text-anchor="start" x="-152" y="-209.6" font-family="Times,serif" font-size="13.00">Date: Jun 19 2017 &#45; 21:09</text>
<text text-anchor="start" x="-152" y="-195.6" font-family="Times,serif" font-size="13.00">Migration version: 20170611164250</text>
<text text-anchor="start" x="-152" y="-181.6" font-family="Times,serif" font-size="13.00">Generated by RailRoady 1.5.2</text>
<text text-anchor="start" x="-152" y="-167.6" font-family="Times,serif" font-size="13.00">http://railroady.prestonlee.com</text>
</g>
<!-- Users::RegistrationsController -->
<g id="node2" class="node"><title>Users::RegistrationsController</title>
<path fill="none" stroke="black" d="M-84,175C-84,175 74,175 74,175 80,175 86,169 86,163 86,163 86,93 86,93 86,87 80,81 74,81 74,81 -84,81 -84,81 -90,81 -96,87 -96,93 -96,93 -96,163 -96,163 -96,169 -90,175 -84,175"/>
<text text-anchor="middle" x="-5" y="96.2" font-family="Times,serif" font-size="14.00">Users::RegistrationsController</text>
<polyline fill="none" stroke="black" points="-96,104 86,104 "/>
<polyline fill="none" stroke="black" points="-96,128 86,128 "/>
<polyline fill="none" stroke="black" points="-96,152 86,152 "/>
<text text-anchor="start" x="-88" y="167.2" font-family="Times,serif" font-size="14.00">_layout</text>
</g>
<!-- Users::ConfirmationsController -->
<g id="node3" class="node"><title>Users::ConfirmationsController</title>
<path fill="none" stroke="black" d="M268.5,-1C268.5,-1 433.5,-1 433.5,-1 439.5,-1 445.5,-7 445.5,-13 445.5,-13 445.5,-83 445.5,-83 445.5,-89 439.5,-95 433.5,-95 433.5,-95 268.5,-95 268.5,-95 262.5,-95 256.5,-89 256.5,-83 256.5,-83 256.5,-13 256.5,-13 256.5,-7 262.5,-1 268.5,-1"/>
<text text-anchor="middle" x="351" y="-79.8" font-family="Times,serif" font-size="14.00">Users::ConfirmationsController</text>
<polyline fill="none" stroke="black" points="256.5,-72 445.5,-72 "/>
<polyline fill="none" stroke="black" points="256.5,-48 445.5,-48 "/>
<polyline fill="none" stroke="black" points="256.5,-24 445.5,-24 "/>
<text text-anchor="start" x="264.5" y="-8.8" font-family="Times,serif" font-size="14.00">_layout</text>
</g>
<!-- Users::SessionsController -->
<g id="node4" class="node"><title>Users::SessionsController</title>
<path fill="none" stroke="black" d="M-227.5,-273C-227.5,-273 -94.5,-273 -94.5,-273 -88.5,-273 -82.5,-279 -82.5,-285 -82.5,-285 -82.5,-355 -82.5,-355 -82.5,-361 -88.5,-367 -94.5,-367 -94.5,-367 -227.5,-367 -227.5,-367 -233.5,-367 -239.5,-361 -239.5,-355 -239.5,-355 -239.5,-285 -239.5,-285 -239.5,-279 -233.5,-273 -227.5,-273"/>
<text text-anchor="middle" x="-161" y="-351.8" font-family="Times,serif" font-size="14.00">Users::SessionsController</text>
<polyline fill="none" stroke="black" points="-239.5,-344 -82.5,-344 "/>
<polyline fill="none" stroke="black" points="-239.5,-320 -82.5,-320 "/>
<polyline fill="none" stroke="black" points="-239.5,-296 -82.5,-296 "/>
<text text-anchor="start" x="-231.5" y="-280.8" font-family="Times,serif" font-size="14.00">_layout</text>
</g>
<!-- Users::OmniauthCallbacksController -->
<g id="node5" class="node"><title>Users::OmniauthCallbacksController</title>
<path fill="none" stroke="black" d="M-100,47C-100,47 94,47 94,47 100,47 106,41 106,35 106,35 106,-35 106,-35 106,-41 100,-47 94,-47 94,-47 -100,-47 -100,-47 -106,-47 -112,-41 -112,-35 -112,-35 -112,35 -112,35 -112,41 -106,47 -100,47"/>
<text text-anchor="middle" x="-3" y="-31.8" font-family="Times,serif" font-size="14.00">Users::OmniauthCallbacksController</text>
<polyline fill="none" stroke="black" points="-112,-24 106,-24 "/>
<polyline fill="none" stroke="black" points="-112,-0 106,-0 "/>
<polyline fill="none" stroke="black" points="-112,24 106,24 "/>
<text text-anchor="start" x="-104" y="39.2" font-family="Times,serif" font-size="14.00">_layout</text>
</g>
<!-- Users::PasswordsController -->
<g id="node6" class="node"><title>Users::PasswordsController</title>
<path fill="none" stroke="black" d="M123.5,271C123.5,271 266.5,271 266.5,271 272.5,271 278.5,265 278.5,259 278.5,259 278.5,189 278.5,189 278.5,183 272.5,177 266.5,177 266.5,177 123.5,177 123.5,177 117.5,177 111.5,183 111.5,189 111.5,189 111.5,259 111.5,259 111.5,265 117.5,271 123.5,271"/>
<text text-anchor="middle" x="195" y="192.2" font-family="Times,serif" font-size="14.00">Users::PasswordsController</text>
<polyline fill="none" stroke="black" points="111.5,200 278.5,200 "/>
<polyline fill="none" stroke="black" points="111.5,224 278.5,224 "/>
<polyline fill="none" stroke="black" points="111.5,248 278.5,248 "/>
<text text-anchor="start" x="119.5" y="263.2" font-family="Times,serif" font-size="14.00">_layout</text>
</g>
<!-- Users::UnlocksController -->
<g id="node7" class="node"><title>Users::UnlocksController</title>
<path fill="none" stroke="black" d="M316.5,303C316.5,303 447.5,303 447.5,303 453.5,303 459.5,297 459.5,291 459.5,291 459.5,221 459.5,221 459.5,215 453.5,209 447.5,209 447.5,209 316.5,209 316.5,209 310.5,209 304.5,215 304.5,221 304.5,221 304.5,291 304.5,291 304.5,297 310.5,303 316.5,303"/>
<text text-anchor="middle" x="382" y="224.2" font-family="Times,serif" font-size="14.00">Users::UnlocksController</text>
<polyline fill="none" stroke="black" points="304.5,232 459.5,232 "/>
<polyline fill="none" stroke="black" points="304.5,256 459.5,256 "/>
<polyline fill="none" stroke="black" points="304.5,280 459.5,280 "/>
<text text-anchor="start" x="312.5" y="295.2" font-family="Times,serif" font-size="14.00">_layout</text>
</g>
<!-- LecturersController -->
<g id="node8" class="node"><title>LecturersController</title>
<path fill="none" stroke="black" d="M-243.5,256C-243.5,256 -144.5,256 -144.5,256 -138.5,256 -132.5,250 -132.5,244 -132.5,244 -132.5,100 -132.5,100 -132.5,94 -138.5,88 -144.5,88 -144.5,88 -243.5,88 -243.5,88 -249.5,88 -255.5,94 -255.5,100 -255.5,100 -255.5,244 -255.5,244 -255.5,250 -249.5,256 -243.5,256"/>
<text text-anchor="middle" x="-194" y="103.2" font-family="Times,serif" font-size="14.00">LecturersController</text>
<polyline fill="none" stroke="black" points="-255.5,111 -132.5,111 "/>
<text text-anchor="start" x="-247.5" y="126.2" font-family="Times,serif" font-size="14.00">create</text>
<text text-anchor="start" x="-247.5" y="141.2" font-family="Times,serif" font-size="14.00">destroy</text>
<text text-anchor="start" x="-247.5" y="156.2" font-family="Times,serif" font-size="14.00">edit</text>
<text text-anchor="start" x="-247.5" y="171.2" font-family="Times,serif" font-size="14.00">index</text>
<text text-anchor="start" x="-247.5" y="186.2" font-family="Times,serif" font-size="14.00">new</text>
<text text-anchor="start" x="-247.5" y="201.2" font-family="Times,serif" font-size="14.00">show</text>
<polyline fill="none" stroke="black" points="-255.5,209 -132.5,209 "/>
<polyline fill="none" stroke="black" points="-255.5,233 -132.5,233 "/>
<text text-anchor="start" x="-247.5" y="248.2" font-family="Times,serif" font-size="14.00">_layout</text>
</g>
<!-- CoursesController -->
<g id="node9" class="node"><title>CoursesController</title>
<path fill="none" stroke="black" d="M-244,48C-244,48 -152,48 -152,48 -146,48 -140,42 -140,36 -140,36 -140,-108 -140,-108 -140,-114 -146,-120 -152,-120 -152,-120 -244,-120 -244,-120 -250,-120 -256,-114 -256,-108 -256,-108 -256,36 -256,36 -256,42 -250,48 -244,48"/>
<text text-anchor="middle" x="-198" y="-104.8" font-family="Times,serif" font-size="14.00">CoursesController</text>
<polyline fill="none" stroke="black" points="-256,-97 -140,-97 "/>
<text text-anchor="start" x="-248" y="-81.8" font-family="Times,serif" font-size="14.00">create</text>
<text text-anchor="start" x="-248" y="-66.8" font-family="Times,serif" font-size="14.00">destroy</text>
<text text-anchor="start" x="-248" y="-51.8" font-family="Times,serif" font-size="14.00">edit</text>
<text text-anchor="start" x="-248" y="-36.8" font-family="Times,serif" font-size="14.00">index</text>
<text text-anchor="start" x="-248" y="-21.8" font-family="Times,serif" font-size="14.00">new</text>
<text text-anchor="start" x="-248" y="-6.8" font-family="Times,serif" font-size="14.00">show</text>
<polyline fill="none" stroke="black" points="-256,1 -140,1 "/>
<polyline fill="none" stroke="black" points="-256,25 -140,25 "/>
<text text-anchor="start" x="-248" y="40.2" font-family="Times,serif" font-size="14.00">_layout</text>
</g>
<!-- TesthomeController -->
<g id="node10" class="node"><title>TesthomeController</title>
<path fill="none" stroke="black" d="M-84,303.5C-84,303.5 18,303.5 18,303.5 24,303.5 30,297.5 30,291.5 30,291.5 30,222.5 30,222.5 30,216.5 24,210.5 18,210.5 18,210.5 -84,210.5 -84,210.5 -90,210.5 -96,216.5 -96,222.5 -96,222.5 -96,291.5 -96,291.5 -96,297.5 -90,303.5 -84,303.5"/>
<text text-anchor="middle" x="-33" y="225.7" font-family="Times,serif" font-size="14.00">TesthomeController</text>
<polyline fill="none" stroke="black" points="-96,233.5 30,233.5 "/>
<text text-anchor="start" x="-88" y="248.7" font-family="Times,serif" font-size="14.00">home</text>
<polyline fill="none" stroke="black" points="-96,256.5 30,256.5 "/>
<polyline fill="none" stroke="black" points="-96,280.5 30,280.5 "/>
<text text-anchor="start" x="-88" y="295.7" font-family="Times,serif" font-size="14.00">_layout</text>
</g>
<!-- CommentsController -->
<g id="node11" class="node"><title>CommentsController</title>
<path fill="none" stroke="black" d="M108,-288.5C108,-288.5 216,-288.5 216,-288.5 222,-288.5 228,-294.5 228,-300.5 228,-300.5 228,-369.5 228,-369.5 228,-375.5 222,-381.5 216,-381.5 216,-381.5 108,-381.5 108,-381.5 102,-381.5 96,-375.5 96,-369.5 96,-369.5 96,-300.5 96,-300.5 96,-294.5 102,-288.5 108,-288.5"/>
<text text-anchor="middle" x="162" y="-366.3" font-family="Times,serif" font-size="14.00">CommentsController</text>
<polyline fill="none" stroke="black" points="96,-358.5 228,-358.5 "/>
<text text-anchor="start" x="104" y="-343.3" font-family="Times,serif" font-size="14.00">create</text>
<polyline fill="none" stroke="black" points="96,-335.5 228,-335.5 "/>
<polyline fill="none" stroke="black" points="96,-311.5 228,-311.5 "/>
<text text-anchor="start" x="104" y="-296.3" font-family="Times,serif" font-size="14.00">_layout</text>
</g>
<!-- UniversitiesController -->
<g id="node12" class="node"><title>UniversitiesController</title>
<path fill="none" stroke="black" d="M92.5,-80C92.5,-80 205.5,-80 205.5,-80 211.5,-80 217.5,-86 217.5,-92 217.5,-92 217.5,-236 217.5,-236 217.5,-242 211.5,-248 205.5,-248 205.5,-248 92.5,-248 92.5,-248 86.5,-248 80.5,-242 80.5,-236 80.5,-236 80.5,-92 80.5,-92 80.5,-86 86.5,-80 92.5,-80"/>
<text text-anchor="middle" x="149" y="-232.8" font-family="Times,serif" font-size="14.00">UniversitiesController</text>
<polyline fill="none" stroke="black" points="80.5,-225 217.5,-225 "/>
<text text-anchor="start" x="88.5" y="-209.8" font-family="Times,serif" font-size="14.00">create</text>
<text text-anchor="start" x="88.5" y="-194.8" font-family="Times,serif" font-size="14.00">destroy</text>
<text text-anchor="start" x="88.5" y="-179.8" font-family="Times,serif" font-size="14.00">edit</text>
<text text-anchor="start" x="88.5" y="-164.8" font-family="Times,serif" font-size="14.00">index</text>
<text text-anchor="start" x="88.5" y="-149.8" font-family="Times,serif" font-size="14.00">new</text>
<text text-anchor="start" x="88.5" y="-134.8" font-family="Times,serif" font-size="14.00">show</text>
<polyline fill="none" stroke="black" points="80.5,-127 217.5,-127 "/>
<polyline fill="none" stroke="black" points="80.5,-103 217.5,-103 "/>
<text text-anchor="start" x="88.5" y="-87.8" font-family="Times,serif" font-size="14.00">_layout</text>
</g>
<!-- ExamsController -->
<g id="node13" class="node"><title>ExamsController</title>
<path fill="none" stroke="black" d="M268,-128C268,-128 354,-128 354,-128 360,-128 366,-134 366,-140 366,-140 366,-284 366,-284 366,-290 360,-296 354,-296 354,-296 268,-296 268,-296 262,-296 256,-290 256,-284 256,-284 256,-140 256,-140 256,-134 262,-128 268,-128"/>
<text text-anchor="middle" x="311" y="-280.8" font-family="Times,serif" font-size="14.00">ExamsController</text>
<polyline fill="none" stroke="black" points="256,-273 366,-273 "/>
<text text-anchor="start" x="264" y="-257.8" font-family="Times,serif" font-size="14.00">create</text>
<text text-anchor="start" x="264" y="-242.8" font-family="Times,serif" font-size="14.00">destroy</text>
<text text-anchor="start" x="264" y="-227.8" font-family="Times,serif" font-size="14.00">edit</text>
<text text-anchor="start" x="264" y="-212.8" font-family="Times,serif" font-size="14.00">index</text>
<text text-anchor="start" x="264" y="-197.8" font-family="Times,serif" font-size="14.00">new</text>
<text text-anchor="start" x="264" y="-182.8" font-family="Times,serif" font-size="14.00">show</text>
<polyline fill="none" stroke="black" points="256,-175 366,-175 "/>
<polyline fill="none" stroke="black" points="256,-151 366,-151 "/>
<text text-anchor="start" x="264" y="-135.8" font-family="Times,serif" font-size="14.00">_layout</text>
</g>
<!-- ApplicationController -->
<g id="node14" class="node"><title>ApplicationController</title>
<path fill="none" stroke="black" d="M156,143C156,143 326,143 326,143 332,143 338,137 338,131 338,131 338,47 338,47 338,41 332,35 326,35 326,35 156,35 156,35 150,35 144,41 144,47 144,47 144,131 144,131 144,137 150,143 156,143"/>
<text text-anchor="middle" x="241" y="50.2" font-family="Times,serif" font-size="14.00">ApplicationController</text>
<polyline fill="none" stroke="black" points="144,58 338,58 "/>
<polyline fill="none" stroke="black" points="144,82 338,82 "/>
<text text-anchor="start" x="152" y="97.2" font-family="Times,serif" font-size="14.00">configure_permitted_parameters</text>
<text text-anchor="start" x="152" y="112.2" font-family="Times,serif" font-size="14.00">layout_by_resource</text>
<polyline fill="none" stroke="black" points="144,120 338,120 "/>
<text text-anchor="start" x="152" y="135.2" font-family="Times,serif" font-size="14.00">_layout</text>
</g>
<!-- TextController -->
<g id="node15" class="node"><title>TextController</title>
<path fill="none" stroke="black" d="M-36.5,-272C-36.5,-272 36.5,-272 36.5,-272 42.5,-272 48.5,-278 48.5,-284 48.5,-284 48.5,-428 48.5,-428 48.5,-434 42.5,-440 36.5,-440 36.5,-440 -36.5,-440 -36.5,-440 -42.5,-440 -48.5,-434 -48.5,-428 -48.5,-428 -48.5,-284 -48.5,-284 -48.5,-278 -42.5,-272 -36.5,-272"/>
<text text-anchor="middle" x="0" y="-424.8" font-family="Times,serif" font-size="14.00">TextController</text>
<polyline fill="none" stroke="black" points="-48.5,-417 48.5,-417 "/>
<text text-anchor="start" x="-40.5" y="-401.8" font-family="Times,serif" font-size="14.00">create</text>
<text text-anchor="start" x="-40.5" y="-386.8" font-family="Times,serif" font-size="14.00">destroy</text>
<text text-anchor="start" x="-40.5" y="-371.8" font-family="Times,serif" font-size="14.00">edit</text>
<text text-anchor="start" x="-40.5" y="-356.8" font-family="Times,serif" font-size="14.00">index</text>
<text text-anchor="start" x="-40.5" y="-341.8" font-family="Times,serif" font-size="14.00">new</text>
<text text-anchor="start" x="-40.5" y="-326.8" font-family="Times,serif" font-size="14.00">show</text>
<polyline fill="none" stroke="black" points="-48.5,-319 48.5,-319 "/>
<polyline fill="none" stroke="black" points="-48.5,-295 48.5,-295 "/>
<text text-anchor="start" x="-40.5" y="-279.8" font-family="Times,serif" font-size="14.00">_layout</text>
</g>
</g>
</svg>
