<?xml version="1.0" encoding="UTF-8" standalone="no"?>
<!DOCTYPE svg PUBLIC "-//W3C//DTD SVG 1.1//EN"
 "http://www.w3.org/Graphics/SVG/1.1/DTD/svg11.dtd">
<!-- Generated by graphviz version 2.38.0 (20140413.2041)
 -->
<!-- Title: models_diagram Pages: 1 -->
<svg width="478pt" height="302pt"
 viewBox="0.00 0.00 477.73 302.00" xmlns="http://www.w3.org/2000/svg" xmlns:xlink="http://www.w3.org/1999/xlink">
<g id="graph0" class="graph" transform="scale(1 1) rotate(0) translate(4 298)">
<title>models_diagram</title>
<polygon fill="none" stroke="none" points="-4,4 -4,-298 473.731,-298 473.731,4 -4,4"/>
<!-- _diagram_info -->
<g id="node1" class="node"><title>_diagram_info</title>
<text text-anchor="start" x="8" y="-279.6" font-family="Times,serif" font-size="13.00">Models diagram</text>
<text text-anchor="start" x="8" y="-265.6" font-family="Times,serif" font-size="13.00">Date: Dec 04 2016 &#45; 18:03</text>
<text text-anchor="start" x="8" y="-251.6" font-family="Times,serif" font-size="13.00">Migration version: 20161204161751</text>
<text text-anchor="start" x="8" y="-237.6" font-family="Times,serif" font-size="13.00">Generated by RailRoady 1.5.2</text>
<text text-anchor="start" x="8" y="-223.6" font-family="Times,serif" font-size="13.00">http://railroady.prestonlee.com</text>
</g>
<!-- Lecturer -->
<g id="node2" class="node"><title>Lecturer</title>
<ellipse fill="none" stroke="black" cx="292" cy="-18" rx="40.0939" ry="18"/>
<text text-anchor="middle" x="292" y="-14.3" font-family="Times,serif" font-size="14.00">Lecturer</text>
</g>
<!-- ApplicationRecord -->
<g id="node3" class="node"><title>ApplicationRecord</title>
<ellipse fill="none" stroke="black" cx="309" cy="-255" rx="77.1866" ry="18"/>
<text text-anchor="middle" x="309" y="-251.3" font-family="Times,serif" font-size="14.00">ApplicationRecord</text>
</g>
<!-- ApplicationRecord&#45;&gt;Lecturer -->
<g id="edge1" class="edge"><title>ApplicationRecord&#45;&gt;Lecturer</title>
<path fill="none" stroke="black" d="M268.915,-239.473C243.021,-227.749 211.387,-208.469 196,-180 166.214,-124.889 235.505,-61.6249 271.712,-33.6309"/>
</g>
<!-- User -->
<g id="node4" class="node"><title>User</title>
<ellipse fill="none" stroke="black" cx="232" cy="-162" rx="27.0966" ry="18"/>
<text text-anchor="middle" x="232" y="-158.3" font-family="Times,serif" font-size="14.00">User</text>
</g>
<!-- ApplicationRecord&#45;&gt;User -->
<g id="edge2" class="edge"><title>ApplicationRecord&#45;&gt;User</title>
<path fill="none" stroke="black" d="M294.517,-236.884C280.228,-219.996 258.59,-194.424 244.883,-178.225"/>
</g>
<!-- Exam -->
<g id="node5" class="node"><title>Exam</title>
<ellipse fill="none" stroke="black" cx="309" cy="-162" rx="31.6951" ry="18"/>
<text text-anchor="middle" x="309" y="-158.3" font-family="Times,serif" font-size="14.00">Exam</text>
</g>
<!-- ApplicationRecord&#45;&gt;Exam -->
<g id="edge3" class="edge"><title>ApplicationRecord&#45;&gt;Exam</title>
<path fill="none" stroke="black" d="M309,-236.884C309,-220.614 309,-196.284 309,-180.04"/>
</g>
<!-- University -->
<g id="node6" class="node"><title>University</title>
<ellipse fill="none" stroke="black" cx="407" cy="-162" rx="48.1917" ry="18"/>
<text text-anchor="middle" x="407" y="-158.3" font-family="Times,serif" font-size="14.00">University</text>
</g>
<!-- ApplicationRecord&#45;&gt;University -->
<g id="edge5" class="edge"><title>ApplicationRecord&#45;&gt;University</title>
<path fill="none" stroke="black" d="M326.975,-237.309C344.878,-220.685 372.169,-195.343 389.797,-178.975"/>
</g>
<!-- Course -->
<g id="node7" class="node"><title>Course</title>
<ellipse fill="none" stroke="black" cx="407" cy="-90" rx="35.9954" ry="18"/>
<text text-anchor="middle" x="407" y="-86.3" font-family="Times,serif" font-size="14.00">Course</text>
</g>
<!-- ApplicationRecord&#45;&gt;Course -->
<g id="edge7" class="edge"><title>ApplicationRecord&#45;&gt;Course</title>
<path fill="none" stroke="black" d="M366.144,-242.74C400.906,-232.627 442.605,-213.923 464,-180 472.535,-166.467 470.391,-158.668 464,-144 456.822,-127.524 441.717,-113.862 428.86,-104.537"/>
</g>
<!-- University&#45;&gt;Course -->
<g id="edge4" class="edge"><title>University&#45;&gt;Course</title>
<path fill="none" stroke="#9ec39a" d="M407,-135.64C407,-130.063 407,-124.132 407,-118.476"/>
<ellipse fill="none" stroke="#9ec39a" cx="407" cy="-139.697" rx="4" ry="4"/>
<polygon fill="#9ec39a" stroke="#9ec39a" points="407,-118.104 411.5,-108.104 407,-113.104 407,-108.104 407,-108.104 407,-108.104 407,-113.104 402.5,-108.104 407,-118.104 407,-118.104"/>
</g>
<!-- Course&#45;&gt;Lecturer -->
<g id="edge6" class="edge"><title>Course&#45;&gt;Lecturer</title>
<path fill="none" stroke="#d4b544" d="M378.195,-71.4663C361.711,-61.4331 340.998,-48.8248 324.008,-38.4829"/>
<ellipse fill="none" stroke="#d4b544" cx="381.682" cy="-73.589" rx="4.00002" ry="4.00002"/>
<polygon fill="#d4b544" stroke="#d4b544" points="323.544,-38.2008 317.342,-29.1573 319.273,-35.601 315.002,-33.0012 315.002,-33.0012 315.002,-33.0012 319.273,-35.601 312.662,-36.8451 323.544,-38.2008 323.544,-38.2008"/>
</g>
</g>
</svg>
