<?xml version="1.0" encoding="UTF-8" standalone="no"?>
<!DOCTYPE svg PUBLIC "-//W3C//DTD SVG 1.1//EN"
 "http://www.w3.org/Graphics/SVG/1.1/DTD/svg11.dtd">
<!-- Generated by graphviz version 2.38.0 (20140413.2041)
 -->
<!-- Title: models_diagram Pages: 1 -->
<svg width="657pt" height="755pt"
 viewBox="0.00 0.00 656.73 755.00" xmlns="http://www.w3.org/2000/svg" xmlns:xlink="http://www.w3.org/1999/xlink">
<g id="graph0" class="graph" transform="scale(1 1) rotate(0) translate(4 751)">
<title>models_diagram</title>
<polygon fill="none" stroke="none" points="-4,4 -4,-751 652.728,-751 652.728,4 -4,4"/>
<!-- _diagram_info -->
<g id="node1" class="node"><title>_diagram_info</title>
<text text-anchor="start" x="59.8227" y="-732.6" font-family="Times,serif" font-size="13.00">Models diagram</text>
<text text-anchor="start" x="59.8227" y="-718.6" font-family="Times,serif" font-size="13.00">Date: Dec 08 2016 &#45; 08:31</text>
<text text-anchor="start" x="59.8227" y="-704.6" font-family="Times,serif" font-size="13.00">Migration version: 20161204161751</text>
<text text-anchor="start" x="59.8227" y="-690.6" font-family="Times,serif" font-size="13.00">Generated by RailRoady 1.5.2</text>
<text text-anchor="start" x="59.8227" y="-676.6" font-family="Times,serif" font-size="13.00">http://railroady.prestonlee.com</text>
</g>
<!-- Lecturer -->
<g id="node2" class="node"><title>Lecturer</title>
<path fill="none" stroke="black" d="M214.823,-0.5C214.823,-0.5 336.823,-0.5 336.823,-0.5 342.823,-0.5 348.823,-6.5 348.823,-12.5 348.823,-12.5 348.823,-154.5 348.823,-154.5 348.823,-160.5 342.823,-166.5 336.823,-166.5 336.823,-166.5 214.823,-166.5 214.823,-166.5 208.823,-166.5 202.823,-160.5 202.823,-154.5 202.823,-154.5 202.823,-12.5 202.823,-12.5 202.823,-6.5 208.823,-0.5 214.823,-0.5"/>
<text text-anchor="middle" x="275.823" y="-151.3" font-family="Times,serif" font-size="14.00">Lecturer</text>
<polyline fill="none" stroke="black" points="202.823,-143.5 348.823,-143.5 "/>
<text text-anchor="start" x="210.823" y="-128.3" font-family="Times,serif" font-size="14.00">id :int(11)</text>
<text text-anchor="start" x="210.823" y="-113.3" font-family="Times,serif" font-size="14.00">name :varchar(255)</text>
<text text-anchor="start" x="210.823" y="-98.3" font-family="Times,serif" font-size="14.00">lastname :varchar(255)</text>
<text text-anchor="start" x="210.823" y="-83.3" font-family="Times,serif" font-size="14.00">title :varchar(255)</text>
<text text-anchor="start" x="210.823" y="-68.3" font-family="Times,serif" font-size="14.00">created_at :datetime</text>
<text text-anchor="start" x="210.823" y="-53.3" font-family="Times,serif" font-size="14.00">updated_at :datetime</text>
<text text-anchor="start" x="210.823" y="-38.3" font-family="Times,serif" font-size="14.00">course_id :varchar(255)</text>
<text text-anchor="start" x="210.823" y="-23.3" font-family="Times,serif" font-size="14.00">username :varchar(255)</text>
<text text-anchor="start" x="210.823" y="-8.3" font-family="Times,serif" font-size="14.00">user_id :varchar(255)</text>
</g>
<!-- ApplicationRecord -->
<g id="node3" class="node"><title>ApplicationRecord</title>
<ellipse fill="none" stroke="black" cx="360.823" cy="-708" rx="77.1866" ry="18"/>
<text text-anchor="middle" x="360.823" y="-704.3" font-family="Times,serif" font-size="14.00">ApplicationRecord</text>
</g>
<!-- ApplicationRecord&#45;&gt;Lecturer -->
<g id="edge1" class="edge"><title>ApplicationRecord&#45;&gt;Lecturer</title>
<path fill="none" stroke="black" d="M330.51,-691.267C314.361,-683.492 293.934,-674.599 274.823,-669 224.755,-654.331 76.7682,-672.619 42.8227,-633 -81.5436,-487.847 94.9468,-266.531 202.822,-154.582"/>
</g>
<!-- User -->
<g id="node4" class="node"><title>User</title>
<path fill="none" stroke="black" d="M63.8227,-391.5C63.8227,-391.5 253.823,-391.5 253.823,-391.5 259.823,-391.5 265.823,-397.5 265.823,-403.5 265.823,-403.5 265.823,-620.5 265.823,-620.5 265.823,-626.5 259.823,-632.5 253.823,-632.5 253.823,-632.5 63.8227,-632.5 63.8227,-632.5 57.8227,-632.5 51.8227,-626.5 51.8227,-620.5 51.8227,-620.5 51.8227,-403.5 51.8227,-403.5 51.8227,-397.5 57.8227,-391.5 63.8227,-391.5"/>
<text text-anchor="middle" x="158.823" y="-617.3" font-family="Times,serif" font-size="14.00">User</text>
<polyline fill="none" stroke="black" points="51.8227,-609.5 265.823,-609.5 "/>
<text text-anchor="start" x="59.8227" y="-594.3" font-family="Times,serif" font-size="14.00">id :int(11)</text>
<text text-anchor="start" x="59.8227" y="-579.3" font-family="Times,serif" font-size="14.00">email :varchar(255)</text>
<text text-anchor="start" x="59.8227" y="-564.3" font-family="Times,serif" font-size="14.00">encrypted_password :varchar(255)</text>
<text text-anchor="start" x="59.8227" y="-549.3" font-family="Times,serif" font-size="14.00">reset_password_token :varchar(255)</text>
<text text-anchor="start" x="59.8227" y="-534.3" font-family="Times,serif" font-size="14.00">reset_password_sent_at :datetime</text>
<text text-anchor="start" x="59.8227" y="-519.3" font-family="Times,serif" font-size="14.00">remember_created_at :datetime</text>
<text text-anchor="start" x="59.8227" y="-504.3" font-family="Times,serif" font-size="14.00">sign_in_count :int(11)</text>
<text text-anchor="start" x="59.8227" y="-489.3" font-family="Times,serif" font-size="14.00">current_sign_in_at :datetime</text>
<text text-anchor="start" x="59.8227" y="-474.3" font-family="Times,serif" font-size="14.00">last_sign_in_at :datetime</text>
<text text-anchor="start" x="59.8227" y="-459.3" font-family="Times,serif" font-size="14.00">current_sign_in_ip :varchar(255)</text>
<text text-anchor="start" x="59.8227" y="-444.3" font-family="Times,serif" font-size="14.00">last_sign_in_ip :varchar(255)</text>
<text text-anchor="start" x="59.8227" y="-429.3" font-family="Times,serif" font-size="14.00">created_at :datetime</text>
<text text-anchor="start" x="59.8227" y="-414.3" font-family="Times,serif" font-size="14.00">updated_at :datetime</text>
<text text-anchor="start" x="59.8227" y="-399.3" font-family="Times,serif" font-size="14.00">username :varchar(255)</text>
</g>
<!-- ApplicationRecord&#45;&gt;User -->
<g id="edge2" class="edge"><title>ApplicationRecord&#45;&gt;User</title>
<path fill="none" stroke="black" d="M340.556,-690.458C322.833,-675.784 296.597,-653.549 274.823,-633 271.872,-630.216 268.898,-627.377 265.911,-624.499"/>
</g>
<!-- Exam -->
<g id="node5" class="node"><title>Exam</title>
<path fill="none" stroke="black" d="M295.823,-451.5C295.823,-451.5 425.823,-451.5 425.823,-451.5 431.823,-451.5 437.823,-457.5 437.823,-463.5 437.823,-463.5 437.823,-560.5 437.823,-560.5 437.823,-566.5 431.823,-572.5 425.823,-572.5 425.823,-572.5 295.823,-572.5 295.823,-572.5 289.823,-572.5 283.823,-566.5 283.823,-560.5 283.823,-560.5 283.823,-463.5 283.823,-463.5 283.823,-457.5 289.823,-451.5 295.823,-451.5"/>
<text text-anchor="middle" x="360.823" y="-557.3" font-family="Times,serif" font-size="14.00">Exam</text>
<polyline fill="none" stroke="black" points="283.823,-549.5 437.823,-549.5 "/>
<text text-anchor="start" x="291.823" y="-534.3" font-family="Times,serif" font-size="14.00">id :int(11)</text>
<text text-anchor="start" x="291.823" y="-519.3" font-family="Times,serif" font-size="14.00">year :int(11)</text>
<text text-anchor="start" x="291.823" y="-504.3" font-family="Times,serif" font-size="14.00">name :varchar(255)</text>
<text text-anchor="start" x="291.823" y="-489.3" font-family="Times,serif" font-size="14.00">description :varchar(255)</text>
<text text-anchor="start" x="291.823" y="-474.3" font-family="Times,serif" font-size="14.00">created_at :datetime</text>
<text text-anchor="start" x="291.823" y="-459.3" font-family="Times,serif" font-size="14.00">updated_at :datetime</text>
</g>
<!-- ApplicationRecord&#45;&gt;Exam -->
<g id="edge3" class="edge"><title>ApplicationRecord&#45;&gt;Exam</title>
<path fill="none" stroke="black" d="M360.823,-689.784C360.823,-663.726 360.823,-613.021 360.823,-572.572"/>
</g>
<!-- University -->
<g id="node6" class="node"><title>University</title>
<path fill="none" stroke="black" d="M467.823,-436.5C467.823,-436.5 589.823,-436.5 589.823,-436.5 595.823,-436.5 601.823,-442.5 601.823,-448.5 601.823,-448.5 601.823,-575.5 601.823,-575.5 601.823,-581.5 595.823,-587.5 589.823,-587.5 589.823,-587.5 467.823,-587.5 467.823,-587.5 461.823,-587.5 455.823,-581.5 455.823,-575.5 455.823,-575.5 455.823,-448.5 455.823,-448.5 455.823,-442.5 461.823,-436.5 467.823,-436.5"/>
<text text-anchor="middle" x="528.823" y="-572.3" font-family="Times,serif" font-size="14.00">University</text>
<polyline fill="none" stroke="black" points="455.823,-564.5 601.823,-564.5 "/>
<text text-anchor="start" x="463.823" y="-549.3" font-family="Times,serif" font-size="14.00">id :int(11)</text>
<text text-anchor="start" x="463.823" y="-534.3" font-family="Times,serif" font-size="14.00">name :varchar(255)</text>
<text text-anchor="start" x="463.823" y="-519.3" font-family="Times,serif" font-size="14.00">address :varchar(255)</text>
<text text-anchor="start" x="463.823" y="-504.3" font-family="Times,serif" font-size="14.00">typ :varchar(255)</text>
<text text-anchor="start" x="463.823" y="-489.3" font-family="Times,serif" font-size="14.00">created_at :datetime</text>
<text text-anchor="start" x="463.823" y="-474.3" font-family="Times,serif" font-size="14.00">updated_at :datetime</text>
<text text-anchor="start" x="463.823" y="-459.3" font-family="Times,serif" font-size="14.00">username :varchar(255)</text>
<text text-anchor="start" x="463.823" y="-444.3" font-family="Times,serif" font-size="14.00">user_id :varchar(255)</text>
</g>
<!-- ApplicationRecord&#45;&gt;University -->
<g id="edge5" class="edge"><title>ApplicationRecord&#45;&gt;University</title>
<path fill="none" stroke="black" d="M383.08,-690.487C401.331,-676.352 427.254,-654.873 446.823,-633 459.273,-619.084 471.377,-603.186 482.294,-587.616"/>
</g>
<!-- Course -->
<g id="node7" class="node"><title>Course</title>
<path fill="none" stroke="black" d="M458.323,-203.5C458.323,-203.5 599.323,-203.5 599.323,-203.5 605.323,-203.5 611.323,-209.5 611.323,-215.5 611.323,-215.5 611.323,-342.5 611.323,-342.5 611.323,-348.5 605.323,-354.5 599.323,-354.5 599.323,-354.5 458.323,-354.5 458.323,-354.5 452.323,-354.5 446.323,-348.5 446.323,-342.5 446.323,-342.5 446.323,-215.5 446.323,-215.5 446.323,-209.5 452.323,-203.5 458.323,-203.5"/>
<text text-anchor="middle" x="528.823" y="-339.3" font-family="Times,serif" font-size="14.00">Course</text>
<polyline fill="none" stroke="black" points="446.323,-331.5 611.323,-331.5 "/>
<text text-anchor="start" x="454.323" y="-316.3" font-family="Times,serif" font-size="14.00">id :int(11)</text>
<text text-anchor="start" x="454.323" y="-301.3" font-family="Times,serif" font-size="14.00">name :varchar(255)</text>
<text text-anchor="start" x="454.323" y="-286.3" font-family="Times,serif" font-size="14.00">description :varchar(255)</text>
<text text-anchor="start" x="454.323" y="-271.3" font-family="Times,serif" font-size="14.00">created_at :datetime</text>
<text text-anchor="start" x="454.323" y="-256.3" font-family="Times,serif" font-size="14.00">updated_at :datetime</text>
<text text-anchor="start" x="454.323" y="-241.3" font-family="Times,serif" font-size="14.00">university_id :varchar(255)</text>
<text text-anchor="start" x="454.323" y="-226.3" font-family="Times,serif" font-size="14.00">username :varchar(255)</text>
<text text-anchor="start" x="454.323" y="-211.3" font-family="Times,serif" font-size="14.00">user_id :varchar(255)</text>
</g>
<!-- ApplicationRecord&#45;&gt;Course -->
<g id="edge7" class="edge"><title>ApplicationRecord&#45;&gt;Course</title>
<path fill="none" stroke="black" d="M423.158,-697.207C489.601,-685.346 588.307,-663.146 610.823,-633 675.184,-546.827 644.465,-493.159 610.823,-391 606.701,-378.484 600.565,-366.222 593.471,-354.683"/>
</g>
<!-- University&#45;&gt;Course -->
<g id="edge4" class="edge"><title>University&#45;&gt;Course</title>
<path fill="none" stroke="#1afb5d" d="M528.823,-428.276C528.823,-407.674 528.823,-385.557 528.823,-364.855"/>
<ellipse fill="none" stroke="#1afb5d" cx="528.823" cy="-432.32" rx="4" ry="4"/>
<polygon fill="#1afb5d" stroke="#1afb5d" points="528.823,-364.818 533.323,-354.818 528.823,-359.818 528.823,-354.818 528.823,-354.818 528.823,-354.818 528.823,-359.818 524.323,-354.818 528.823,-364.818 528.823,-364.818"/>
</g>
<!-- Course&#45;&gt;Lecturer -->
<g id="edge6" class="edge"><title>Course&#45;&gt;Lecturer</title>
<path fill="none" stroke="#981e45" d="M439.328,-209.552C412.537,-189.062 383.318,-166.715 357.087,-146.653"/>
<ellipse fill="none" stroke="#981e45" cx="442.804" cy="-212.211" rx="4.00002" ry="4.00002"/>
<polygon fill="#981e45" stroke="#981e45" points="356.992,-146.58 351.782,-136.93 353.02,-143.542 349.049,-140.505 349.049,-140.505 349.049,-140.505 353.02,-143.542 346.315,-144.079 356.992,-146.58 356.992,-146.58"/>
</g>
</g>
</svg>
