<?xml version="1.0" encoding="UTF-8" standalone="no"?>
<!DOCTYPE svg PUBLIC "-//W3C//DTD SVG 1.1//EN"
 "http://www.w3.org/Graphics/SVG/1.1/DTD/svg11.dtd">
<!-- Generated by graphviz version 2.38.0 (20140413.2041)
 -->
<!-- Title: models_diagram Pages: 1 -->
<svg width="880pt" height="349pt"
 viewBox="0.00 0.00 879.50 349.00" xmlns="http://www.w3.org/2000/svg" xmlns:xlink="http://www.w3.org/1999/xlink">
<g id="graph0" class="graph" transform="scale(1 1) rotate(0) translate(4 345)">
<title>models_diagram</title>
<polygon fill="none" stroke="none" points="-4,4 -4,-345 875.5,-345 875.5,4 -4,4"/>
<!-- _diagram_info -->
<g id="node1" class="node"><title>_diagram_info</title>
<text text-anchor="start" x="169.5" y="-326.6" font-family="Times,serif" font-size="13.00">Models diagram</text>
<text text-anchor="start" x="169.5" y="-312.6" font-family="Times,serif" font-size="13.00">Date: Nov 23 2016 &#45; 11:24</text>
<text text-anchor="start" x="169.5" y="-298.6" font-family="Times,serif" font-size="13.00">Migration version: 20161122102742</text>
<text text-anchor="start" x="169.5" y="-284.6" font-family="Times,serif" font-size="13.00">Generated by RailRoady 1.5.2</text>
<text text-anchor="start" x="169.5" y="-270.6" font-family="Times,serif" font-size="13.00">http://railroady.prestonlee.com</text>
</g>
<!-- Lecturer -->
<g id="node2" class="node"><title>Lecturer</title>
<path fill="none" stroke="black" d="M12,-53C12,-53 131,-53 131,-53 137,-53 143,-59 143,-65 143,-65 143,-162 143,-162 143,-168 137,-174 131,-174 131,-174 12,-174 12,-174 6,-174 0,-168 0,-162 0,-162 0,-65 0,-65 0,-59 6,-53 12,-53"/>
<text text-anchor="middle" x="71.5" y="-158.8" font-family="Times,serif" font-size="14.00">Lecturer</text>
<polyline fill="none" stroke="black" points="0,-151 143,-151 "/>
<text text-anchor="start" x="8" y="-135.8" font-family="Times,serif" font-size="14.00">id :int(11)</text>
<text text-anchor="start" x="8" y="-120.8" font-family="Times,serif" font-size="14.00">name :varchar(255)</text>
<text text-anchor="start" x="8" y="-105.8" font-family="Times,serif" font-size="14.00">lastname :varchar(255)</text>
<text text-anchor="start" x="8" y="-90.8" font-family="Times,serif" font-size="14.00">title :varchar(255)</text>
<text text-anchor="start" x="8" y="-75.8" font-family="Times,serif" font-size="14.00">created_at :datetime</text>
<text text-anchor="start" x="8" y="-60.8" font-family="Times,serif" font-size="14.00">updated_at :datetime</text>
</g>
<!-- ApplicationRecord -->
<g id="node3" class="node"><title>ApplicationRecord</title>
<ellipse fill="none" stroke="black" cx="470.5" cy="-302" rx="77.1866" ry="18"/>
<text text-anchor="middle" x="470.5" y="-298.3" font-family="Times,serif" font-size="14.00">ApplicationRecord</text>
</g>
<!-- ApplicationRecord&#45;&gt;Lecturer -->
<g id="edge1" class="edge"><title>ApplicationRecord&#45;&gt;Lecturer</title>
<path fill="none" stroke="black" d="M440.187,-285.267C424.038,-277.492 403.611,-268.599 384.5,-263 284.364,-233.662 241.437,-281.572 152.5,-227 131.679,-214.224 114.635,-193.894 101.647,-174.009"/>
</g>
<!-- User -->
<g id="node4" class="node"><title>User</title>
<path fill="none" stroke="black" d="M173.5,-0.5C173.5,-0.5 363.5,-0.5 363.5,-0.5 369.5,-0.5 375.5,-6.5 375.5,-12.5 375.5,-12.5 375.5,-214.5 375.5,-214.5 375.5,-220.5 369.5,-226.5 363.5,-226.5 363.5,-226.5 173.5,-226.5 173.5,-226.5 167.5,-226.5 161.5,-220.5 161.5,-214.5 161.5,-214.5 161.5,-12.5 161.5,-12.5 161.5,-6.5 167.5,-0.5 173.5,-0.5"/>
<text text-anchor="middle" x="268.5" y="-211.3" font-family="Times,serif" font-size="14.00">User</text>
<polyline fill="none" stroke="black" points="161.5,-203.5 375.5,-203.5 "/>
<text text-anchor="start" x="169.5" y="-188.3" font-family="Times,serif" font-size="14.00">id :int(11)</text>
<text text-anchor="start" x="169.5" y="-173.3" font-family="Times,serif" font-size="14.00">email :varchar(255)</text>
<text text-anchor="start" x="169.5" y="-158.3" font-family="Times,serif" font-size="14.00">encrypted_password :varchar(255)</text>
<text text-anchor="start" x="169.5" y="-143.3" font-family="Times,serif" font-size="14.00">reset_password_token :varchar(255)</text>
<text text-anchor="start" x="169.5" y="-128.3" font-family="Times,serif" font-size="14.00">reset_password_sent_at :datetime</text>
<text text-anchor="start" x="169.5" y="-113.3" font-family="Times,serif" font-size="14.00">remember_created_at :datetime</text>
<text text-anchor="start" x="169.5" y="-98.3" font-family="Times,serif" font-size="14.00">sign_in_count :int(11)</text>
<text text-anchor="start" x="169.5" y="-83.3" font-family="Times,serif" font-size="14.00">current_sign_in_at :datetime</text>
<text text-anchor="start" x="169.5" y="-68.3" font-family="Times,serif" font-size="14.00">last_sign_in_at :datetime</text>
<text text-anchor="start" x="169.5" y="-53.3" font-family="Times,serif" font-size="14.00">current_sign_in_ip :varchar(255)</text>
<text text-anchor="start" x="169.5" y="-38.3" font-family="Times,serif" font-size="14.00">last_sign_in_ip :varchar(255)</text>
<text text-anchor="start" x="169.5" y="-23.3" font-family="Times,serif" font-size="14.00">created_at :datetime</text>
<text text-anchor="start" x="169.5" y="-8.3" font-family="Times,serif" font-size="14.00">updated_at :datetime</text>
</g>
<!-- ApplicationRecord&#45;&gt;User -->
<g id="edge2" class="edge"><title>ApplicationRecord&#45;&gt;User</title>
<path fill="none" stroke="black" d="M450.742,-284.574C433.122,-269.79 406.749,-247.328 384.5,-227 381.6,-224.351 378.671,-221.655 375.724,-218.925"/>
</g>
<!-- Exam -->
<g id="node5" class="node"><title>Exam</title>
<path fill="none" stroke="black" d="M405.5,-53C405.5,-53 535.5,-53 535.5,-53 541.5,-53 547.5,-59 547.5,-65 547.5,-65 547.5,-162 547.5,-162 547.5,-168 541.5,-174 535.5,-174 535.5,-174 405.5,-174 405.5,-174 399.5,-174 393.5,-168 393.5,-162 393.5,-162 393.5,-65 393.5,-65 393.5,-59 399.5,-53 405.5,-53"/>
<text text-anchor="middle" x="470.5" y="-158.8" font-family="Times,serif" font-size="14.00">Exam</text>
<polyline fill="none" stroke="black" points="393.5,-151 547.5,-151 "/>
<text text-anchor="start" x="401.5" y="-135.8" font-family="Times,serif" font-size="14.00">id :int(11)</text>
<text text-anchor="start" x="401.5" y="-120.8" font-family="Times,serif" font-size="14.00">year :int(11)</text>
<text text-anchor="start" x="401.5" y="-105.8" font-family="Times,serif" font-size="14.00">name :varchar(255)</text>
<text text-anchor="start" x="401.5" y="-90.8" font-family="Times,serif" font-size="14.00">description :varchar(255)</text>
<text text-anchor="start" x="401.5" y="-75.8" font-family="Times,serif" font-size="14.00">created_at :datetime</text>
<text text-anchor="start" x="401.5" y="-60.8" font-family="Times,serif" font-size="14.00">updated_at :datetime</text>
</g>
<!-- ApplicationRecord&#45;&gt;Exam -->
<g id="edge3" class="edge"><title>ApplicationRecord&#45;&gt;Exam</title>
<path fill="none" stroke="black" d="M470.5,-283.789C470.5,-259.081 470.5,-212.335 470.5,-174.215"/>
</g>
<!-- University -->
<g id="node6" class="node"><title>University</title>
<path fill="none" stroke="black" d="M577.5,-53C577.5,-53 687.5,-53 687.5,-53 693.5,-53 699.5,-59 699.5,-65 699.5,-65 699.5,-162 699.5,-162 699.5,-168 693.5,-174 687.5,-174 687.5,-174 577.5,-174 577.5,-174 571.5,-174 565.5,-168 565.5,-162 565.5,-162 565.5,-65 565.5,-65 565.5,-59 571.5,-53 577.5,-53"/>
<text text-anchor="middle" x="632.5" y="-158.8" font-family="Times,serif" font-size="14.00">University</text>
<polyline fill="none" stroke="black" points="565.5,-151 699.5,-151 "/>
<text text-anchor="start" x="573.5" y="-135.8" font-family="Times,serif" font-size="14.00">id :int(11)</text>
<text text-anchor="start" x="573.5" y="-120.8" font-family="Times,serif" font-size="14.00">name :varchar(255)</text>
<text text-anchor="start" x="573.5" y="-105.8" font-family="Times,serif" font-size="14.00">address :varchar(255)</text>
<text text-anchor="start" x="573.5" y="-90.8" font-family="Times,serif" font-size="14.00">typ :varchar(255)</text>
<text text-anchor="start" x="573.5" y="-75.8" font-family="Times,serif" font-size="14.00">created_at :datetime</text>
<text text-anchor="start" x="573.5" y="-60.8" font-family="Times,serif" font-size="14.00">updated_at :datetime</text>
</g>
<!-- ApplicationRecord&#45;&gt;University -->
<g id="edge4" class="edge"><title>ApplicationRecord&#45;&gt;University</title>
<path fill="none" stroke="black" d="M492.788,-284.514C511.057,-270.396 536.99,-248.925 556.5,-227 570.837,-210.889 584.635,-191.922 596.446,-174.2"/>
</g>
<!-- Course -->
<g id="node7" class="node"><title>Course</title>
<path fill="none" stroke="black" d="M729.5,-60.5C729.5,-60.5 859.5,-60.5 859.5,-60.5 865.5,-60.5 871.5,-66.5 871.5,-72.5 871.5,-72.5 871.5,-154.5 871.5,-154.5 871.5,-160.5 865.5,-166.5 859.5,-166.5 859.5,-166.5 729.5,-166.5 729.5,-166.5 723.5,-166.5 717.5,-160.5 717.5,-154.5 717.5,-154.5 717.5,-72.5 717.5,-72.5 717.5,-66.5 723.5,-60.5 729.5,-60.5"/>
<text text-anchor="middle" x="794.5" y="-151.3" font-family="Times,serif" font-size="14.00">Course</text>
<polyline fill="none" stroke="black" points="717.5,-143.5 871.5,-143.5 "/>
<text text-anchor="start" x="725.5" y="-128.3" font-family="Times,serif" font-size="14.00">id :int(11)</text>
<text text-anchor="start" x="725.5" y="-113.3" font-family="Times,serif" font-size="14.00">name :varchar(255)</text>
<text text-anchor="start" x="725.5" y="-98.3" font-family="Times,serif" font-size="14.00">description :varchar(255)</text>
<text text-anchor="start" x="725.5" y="-83.3" font-family="Times,serif" font-size="14.00">created_at :datetime</text>
<text text-anchor="start" x="725.5" y="-68.3" font-family="Times,serif" font-size="14.00">updated_at :datetime</text>
</g>
<!-- ApplicationRecord&#45;&gt;Course -->
<g id="edge5" class="edge"><title>ApplicationRecord&#45;&gt;Course</title>
<path fill="none" stroke="black" d="M534.839,-291.99C585.621,-282.42 656.356,-263.427 708.5,-227 730.971,-211.302 750.182,-187.937 764.71,-166.561"/>
</g>
</g>
</svg>
