<?xml version="1.0" encoding="UTF-8" standalone="no"?>
<!DOCTYPE svg PUBLIC "-//W3C//DTD SVG 1.1//EN"
 "http://www.w3.org/Graphics/SVG/1.1/DTD/svg11.dtd">
<!-- Generated by graphviz version 2.38.0 (20140413.2041)
 -->
<!-- Title: models_diagram Pages: 1 -->
<svg width="590pt" height="230pt"
 viewBox="0.00 0.00 589.85 230.00" xmlns="http://www.w3.org/2000/svg" xmlns:xlink="http://www.w3.org/1999/xlink">
<g id="graph0" class="graph" transform="scale(1 1) rotate(0) translate(4 226)">
<title>models_diagram</title>
<polygon fill="none" stroke="none" points="-4,4 -4,-226 585.847,-226 585.847,4 -4,4"/>
<!-- _diagram_info -->
<g id="node1" class="node"><title>_diagram_info</title>
<text text-anchor="start" x="8" y="-207.6" font-family="Times,serif" font-size="13.00">Models diagram</text>
<text text-anchor="start" x="8" y="-193.6" font-family="Times,serif" font-size="13.00">Date: Jun 19 2017 &#45; 21:09</text>
<text text-anchor="start" x="8" y="-179.6" font-family="Times,serif" font-size="13.00">Migration version: 20170611164250</text>
<text text-anchor="start" x="8" y="-165.6" font-family="Times,serif" font-size="13.00">Generated by RailRoady 1.5.2</text>
<text text-anchor="start" x="8" y="-151.6" font-family="Times,serif" font-size="13.00">http://railroady.prestonlee.com</text>
</g>
<!-- Lecturer -->
<g id="node2" class="node"><title>Lecturer</title>
<ellipse fill="none" stroke="black" cx="280" cy="-18" rx="40.0939" ry="18"/>
<text text-anchor="middle" x="280" y="-14.3" font-family="Times,serif" font-size="14.00">Lecturer</text>
</g>
<!-- ApplicationRecord -->
<g id="node3" class="node"><title>ApplicationRecord</title>
<ellipse fill="none" stroke="black" cx="423" cy="-183" rx="77.1866" ry="18"/>
<text text-anchor="middle" x="423" y="-179.3" font-family="Times,serif" font-size="14.00">ApplicationRecord</text>
</g>
<!-- Comment -->
<g id="node4" class="node"><title>Comment</title>
<ellipse fill="none" stroke="black" cx="514" cy="-18" rx="46.2923" ry="18"/>
<text text-anchor="middle" x="514" y="-14.3" font-family="Times,serif" font-size="14.00">Comment</text>
</g>
<!-- User -->
<g id="node5" class="node"><title>User</title>
<ellipse fill="none" stroke="black" cx="478" cy="-90" rx="27.0966" ry="18"/>
<text text-anchor="middle" x="478" y="-86.3" font-family="Times,serif" font-size="14.00">User</text>
</g>
<!-- User&#45;&gt;Comment -->
<g id="edge1" class="edge"><title>User&#45;&gt;Comment</title>
<path fill="none" stroke="#1a035b" d="M490.132,-65.4095C493.448,-58.9632 497.061,-51.9371 500.45,-45.3476"/>
<ellipse fill="none" stroke="#1a035b" cx="488.179" cy="-69.2075" rx="4.00002" ry="4.00002"/>
<polygon fill="#1a035b" stroke="#1a035b" points="500.62,-45.0168 509.195,-38.182 502.907,-40.5704 505.193,-36.1239 505.193,-36.1239 505.193,-36.1239 502.907,-40.5704 501.192,-34.0658 500.62,-45.0168 500.62,-45.0168"/>
</g>
<!-- Text -->
<g id="node6" class="node"><title>Text</title>
<ellipse fill="none" stroke="black" cx="550" cy="-90" rx="27" ry="18"/>
<text text-anchor="middle" x="550" y="-86.3" font-family="Times,serif" font-size="14.00">Text</text>
</g>
<!-- Text&#45;&gt;Comment -->
<g id="edge2" class="edge"><title>Text&#45;&gt;Comment</title>
<path fill="none" stroke="#b2d435" d="M537.868,-65.4095C534.552,-58.9632 530.939,-51.9371 527.55,-45.3476"/>
<ellipse fill="none" stroke="#b2d435" cx="539.821" cy="-69.2075" rx="4.00002" ry="4.00002"/>
<polygon fill="#b2d435" stroke="#b2d435" points="527.38,-45.0168 526.808,-34.0658 525.093,-40.5704 522.807,-36.1239 522.807,-36.1239 522.807,-36.1239 525.093,-40.5704 518.805,-38.182 527.38,-45.0168 527.38,-45.0168"/>
</g>
<!-- Exam -->
<g id="node7" class="node"><title>Exam</title>
<ellipse fill="none" stroke="black" cx="550" cy="-183" rx="31.6951" ry="18"/>
<text text-anchor="middle" x="550" y="-179.3" font-family="Times,serif" font-size="14.00">Exam</text>
</g>
<!-- Exam&#45;&gt;Text -->
<g id="edge3" class="edge"><title>Exam&#45;&gt;Text</title>
<path fill="none" stroke="#a6f557" d="M550,-156.729C550,-144.725 550,-130.362 550,-118.129"/>
<ellipse fill="none" stroke="#a6f557" cx="550" cy="-160.884" rx="4" ry="4"/>
<polygon fill="#a6f557" stroke="#a6f557" points="550,-118.04 554.5,-108.04 550,-113.04 550,-108.04 550,-108.04 550,-108.04 550,-113.04 545.5,-108.04 550,-118.04 550,-118.04"/>
</g>
<!-- University -->
<g id="node8" class="node"><title>University</title>
<ellipse fill="none" stroke="black" cx="280" cy="-183" rx="48.1917" ry="18"/>
<text text-anchor="middle" x="280" y="-179.3" font-family="Times,serif" font-size="14.00">University</text>
</g>
<!-- Course -->
<g id="node9" class="node"><title>Course</title>
<ellipse fill="none" stroke="black" cx="280" cy="-90" rx="35.9954" ry="18"/>
<text text-anchor="middle" x="280" y="-86.3" font-family="Times,serif" font-size="14.00">Course</text>
</g>
<!-- University&#45;&gt;Course -->
<g id="edge4" class="edge"><title>University&#45;&gt;Course</title>
<path fill="none" stroke="#609de0" d="M280,-156.729C280,-144.725 280,-130.362 280,-118.129"/>
<ellipse fill="none" stroke="#609de0" cx="280" cy="-160.884" rx="4" ry="4"/>
<polygon fill="#609de0" stroke="#609de0" points="280,-118.04 284.5,-108.04 280,-113.04 280,-108.04 280,-108.04 280,-108.04 280,-113.04 275.5,-108.04 280,-118.04 280,-118.04"/>
</g>
<!-- Course&#45;&gt;Lecturer -->
<g id="edge5" class="edge"><title>Course&#45;&gt;Lecturer</title>
<path fill="none" stroke="#c4da8e" d="M280,-63.6398C280,-58.0629 280,-52.1319 280,-46.4761"/>
<ellipse fill="none" stroke="#c4da8e" cx="280" cy="-67.6966" rx="4" ry="4"/>
<polygon fill="#c4da8e" stroke="#c4da8e" points="280,-46.1043 284.5,-36.1043 280,-41.1043 280,-36.1043 280,-36.1043 280,-36.1043 280,-41.1043 275.5,-36.1044 280,-46.1043 280,-46.1043"/>
</g>
</g>
</svg>
