<?xml version="1.0" encoding="UTF-8" standalone="no"?>
<!DOCTYPE svg PUBLIC "-//W3C//DTD SVG 1.1//EN"
 "http://www.w3.org/Graphics/SVG/1.1/DTD/svg11.dtd">
<!-- Generated by graphviz version 2.38.0 (20140413.2041)
 -->
<!-- Title: models_diagram Pages: 1 -->
<svg width="800pt" height="641pt"
 viewBox="0.00 0.00 800.00 641.00" xmlns="http://www.w3.org/2000/svg" xmlns:xlink="http://www.w3.org/1999/xlink">
<g id="graph0" class="graph" transform="scale(1 1) rotate(0) translate(4 637)">
<title>models_diagram</title>
<polygon fill="none" stroke="none" points="-4,4 -4,-637 796,-637 796,4 -4,4"/>
<!-- _diagram_info -->
<g id="node1" class="node"><title>_diagram_info</title>
<text text-anchor="start" x="8" y="-581.6" font-family="Times,serif" font-size="13.00">Models diagram</text>
<text text-anchor="start" x="8" y="-567.6" font-family="Times,serif" font-size="13.00">Date: Jun 19 2017 &#45; 21:15</text>
<text text-anchor="start" x="8" y="-553.6" font-family="Times,serif" font-size="13.00">Migration version: 20170611164250</text>
<text text-anchor="start" x="8" y="-539.6" font-family="Times,serif" font-size="13.00">Generated by RailRoady 1.5.2</text>
<text text-anchor="start" x="8" y="-525.6" font-family="Times,serif" font-size="13.00">http://railroady.prestonlee.com</text>
</g>
<!-- Lecturer -->
<g id="node2" class="node"><title>Lecturer</title>
<path fill="none" stroke="black" d="M244,-0.5C244,-0.5 366,-0.5 366,-0.5 372,-0.5 378,-6.5 378,-12.5 378,-12.5 378,-154.5 378,-154.5 378,-160.5 372,-166.5 366,-166.5 366,-166.5 244,-166.5 244,-166.5 238,-166.5 232,-160.5 232,-154.5 232,-154.5 232,-12.5 232,-12.5 232,-6.5 238,-0.5 244,-0.5"/>
<text text-anchor="middle" x="305" y="-151.3" font-family="Times,serif" font-size="14.00">Lecturer</text>
<polyline fill="none" stroke="black" points="232,-143.5 378,-143.5 "/>
<text text-anchor="start" x="240" y="-128.3" font-family="Times,serif" font-size="14.00">id :int(11)</text>
<text text-anchor="start" x="240" y="-113.3" font-family="Times,serif" font-size="14.00">name :varchar(255)</text>
<text text-anchor="start" x="240" y="-98.3" font-family="Times,serif" font-size="14.00">lastname :varchar(255)</text>
<text text-anchor="start" x="240" y="-83.3" font-family="Times,serif" font-size="14.00">title :varchar(255)</text>
<text text-anchor="start" x="240" y="-68.3" font-family="Times,serif" font-size="14.00">created_at :datetime</text>
<text text-anchor="start" x="240" y="-53.3" font-family="Times,serif" font-size="14.00">updated_at :datetime</text>
<text text-anchor="start" x="240" y="-38.3" font-family="Times,serif" font-size="14.00">course_id :varchar(255)</text>
<text text-anchor="start" x="240" y="-23.3" font-family="Times,serif" font-size="14.00">username :varchar(255)</text>
<text text-anchor="start" x="240" y="-8.3" font-family="Times,serif" font-size="14.00">user_id :varchar(255)</text>
</g>
<!-- ApplicationRecord -->
<g id="node3" class="node"><title>ApplicationRecord</title>
<ellipse fill="none" stroke="black" cx="508" cy="-557" rx="77.1866" ry="18"/>
<text text-anchor="middle" x="508" y="-553.3" font-family="Times,serif" font-size="14.00">ApplicationRecord</text>
</g>
<!-- Comment -->
<g id="node4" class="node"><title>Comment</title>
<path fill="none" stroke="black" d="M560.5,-15.5C560.5,-15.5 667.5,-15.5 667.5,-15.5 673.5,-15.5 679.5,-21.5 679.5,-27.5 679.5,-27.5 679.5,-139.5 679.5,-139.5 679.5,-145.5 673.5,-151.5 667.5,-151.5 667.5,-151.5 560.5,-151.5 560.5,-151.5 554.5,-151.5 548.5,-145.5 548.5,-139.5 548.5,-139.5 548.5,-27.5 548.5,-27.5 548.5,-21.5 554.5,-15.5 560.5,-15.5"/>
<text text-anchor="middle" x="614" y="-136.3" font-family="Times,serif" font-size="14.00">Comment</text>
<polyline fill="none" stroke="black" points="548.5,-128.5 679.5,-128.5 "/>
<text text-anchor="start" x="556.5" y="-113.3" font-family="Times,serif" font-size="14.00">id :int(11)</text>
<text text-anchor="start" x="556.5" y="-98.3" font-family="Times,serif" font-size="14.00">userid :int(11)</text>
<text text-anchor="start" x="556.5" y="-83.3" font-family="Times,serif" font-size="14.00">content :text</text>
<text text-anchor="start" x="556.5" y="-68.3" font-family="Times,serif" font-size="14.00">tuep :varchar(255)</text>
<text text-anchor="start" x="556.5" y="-53.3" font-family="Times,serif" font-size="14.00">resourceid :int(11)</text>
<text text-anchor="start" x="556.5" y="-38.3" font-family="Times,serif" font-size="14.00">created_at :datetime</text>
<text text-anchor="start" x="556.5" y="-23.3" font-family="Times,serif" font-size="14.00">updated_at :datetime</text>
</g>
<!-- User -->
<g id="node5" class="node"><title>User</title>
<path fill="none" stroke="black" d="M418,-203.5C418,-203.5 608,-203.5 608,-203.5 614,-203.5 620,-209.5 620,-215.5 620,-215.5 620,-432.5 620,-432.5 620,-438.5 614,-444.5 608,-444.5 608,-444.5 418,-444.5 418,-444.5 412,-444.5 406,-438.5 406,-432.5 406,-432.5 406,-215.5 406,-215.5 406,-209.5 412,-203.5 418,-203.5"/>
<text text-anchor="middle" x="513" y="-429.3" font-family="Times,serif" font-size="14.00">User</text>
<polyline fill="none" stroke="black" points="406,-421.5 620,-421.5 "/>
<text text-anchor="start" x="414" y="-406.3" font-family="Times,serif" font-size="14.00">id :int(11)</text>
<text text-anchor="start" x="414" y="-391.3" font-family="Times,serif" font-size="14.00">email :varchar(255)</text>
<text text-anchor="start" x="414" y="-376.3" font-family="Times,serif" font-size="14.00">encrypted_password :varchar(255)</text>
<text text-anchor="start" x="414" y="-361.3" font-family="Times,serif" font-size="14.00">reset_password_token :varchar(255)</text>
<text text-anchor="start" x="414" y="-346.3" font-family="Times,serif" font-size="14.00">reset_password_sent_at :datetime</text>
<text text-anchor="start" x="414" y="-331.3" font-family="Times,serif" font-size="14.00">remember_created_at :datetime</text>
<text text-anchor="start" x="414" y="-316.3" font-family="Times,serif" font-size="14.00">sign_in_count :int(11)</text>
<text text-anchor="start" x="414" y="-301.3" font-family="Times,serif" font-size="14.00">current_sign_in_at :datetime</text>
<text text-anchor="start" x="414" y="-286.3" font-family="Times,serif" font-size="14.00">last_sign_in_at :datetime</text>
<text text-anchor="start" x="414" y="-271.3" font-family="Times,serif" font-size="14.00">current_sign_in_ip :varchar(255)</text>
<text text-anchor="start" x="414" y="-256.3" font-family="Times,serif" font-size="14.00">last_sign_in_ip :varchar(255)</text>
<text text-anchor="start" x="414" y="-241.3" font-family="Times,serif" font-size="14.00">created_at :datetime</text>
<text text-anchor="start" x="414" y="-226.3" font-family="Times,serif" font-size="14.00">updated_at :datetime</text>
<text text-anchor="start" x="414" y="-211.3" font-family="Times,serif" font-size="14.00">username :varchar(255)</text>
</g>
<!-- User&#45;&gt;Comment -->
<g id="edge1" class="edge"><title>User&#45;&gt;Comment</title>
<path fill="none" stroke="#dc73ca" d="M566.823,-195.904C571.869,-183.987 576.871,-172.176 581.626,-160.949"/>
<ellipse fill="none" stroke="#dc73ca" cx="565.208" cy="-199.717" rx="4.00002" ry="4.00002"/>
<polygon fill="#dc73ca" stroke="#dc73ca" points="581.657,-160.874 589.701,-153.42 583.607,-156.269 585.557,-151.665 585.557,-151.665 585.557,-151.665 583.607,-156.269 581.413,-149.91 581.657,-160.874 581.657,-160.874"/>
</g>
<!-- Text -->
<g id="node6" class="node"><title>Text</title>
<path fill="none" stroke="black" d="M650,-248.5C650,-248.5 780,-248.5 780,-248.5 786,-248.5 792,-254.5 792,-260.5 792,-260.5 792,-387.5 792,-387.5 792,-393.5 786,-399.5 780,-399.5 780,-399.5 650,-399.5 650,-399.5 644,-399.5 638,-393.5 638,-387.5 638,-387.5 638,-260.5 638,-260.5 638,-254.5 644,-248.5 650,-248.5"/>
<text text-anchor="middle" x="715" y="-384.3" font-family="Times,serif" font-size="14.00">Text</text>
<polyline fill="none" stroke="black" points="638,-376.5 792,-376.5 "/>
<text text-anchor="start" x="646" y="-361.3" font-family="Times,serif" font-size="14.00">id :int(11)</text>
<text text-anchor="start" x="646" y="-346.3" font-family="Times,serif" font-size="14.00">title :varchar(255)</text>
<text text-anchor="start" x="646" y="-331.3" font-family="Times,serif" font-size="14.00">content :text</text>
<text text-anchor="start" x="646" y="-316.3" font-family="Times,serif" font-size="14.00">description :varchar(255)</text>
<text text-anchor="start" x="646" y="-301.3" font-family="Times,serif" font-size="14.00">user_id :int(11)</text>
<text text-anchor="start" x="646" y="-286.3" font-family="Times,serif" font-size="14.00">created_at :datetime</text>
<text text-anchor="start" x="646" y="-271.3" font-family="Times,serif" font-size="14.00">updated_at :datetime</text>
<text text-anchor="start" x="646" y="-256.3" font-family="Times,serif" font-size="14.00">exam_id :int(11)</text>
</g>
<!-- Text&#45;&gt;Comment -->
<g id="edge2" class="edge"><title>Text&#45;&gt;Comment</title>
<path fill="none" stroke="#8ce24f" d="M680.065,-240.506C669.184,-214.811 657.234,-186.593 646.525,-161.304"/>
<ellipse fill="none" stroke="#8ce24f" cx="681.76" cy="-244.508" rx="4.00001" ry="4.00001"/>
<polygon fill="#8ce24f" stroke="#8ce24f" points="646.386,-160.975 646.63,-150.012 644.436,-156.371 642.486,-151.766 642.486,-151.766 642.486,-151.766 644.436,-156.371 638.342,-153.521 646.386,-160.975 646.386,-160.975"/>
</g>
<!-- Exam -->
<g id="node7" class="node"><title>Exam</title>
<path fill="none" stroke="black" d="M650,-489C650,-489 780,-489 780,-489 786,-489 792,-495 792,-501 792,-501 792,-613 792,-613 792,-619 786,-625 780,-625 780,-625 650,-625 650,-625 644,-625 638,-619 638,-613 638,-613 638,-501 638,-501 638,-495 644,-489 650,-489"/>
<text text-anchor="middle" x="715" y="-609.8" font-family="Times,serif" font-size="14.00">Exam</text>
<polyline fill="none" stroke="black" points="638,-602 792,-602 "/>
<text text-anchor="start" x="646" y="-586.8" font-family="Times,serif" font-size="14.00">id :int(11)</text>
<text text-anchor="start" x="646" y="-571.8" font-family="Times,serif" font-size="14.00">year :int(11)</text>
<text text-anchor="start" x="646" y="-556.8" font-family="Times,serif" font-size="14.00">name :varchar(255)</text>
<text text-anchor="start" x="646" y="-541.8" font-family="Times,serif" font-size="14.00">description :varchar(255)</text>
<text text-anchor="start" x="646" y="-526.8" font-family="Times,serif" font-size="14.00">created_at :datetime</text>
<text text-anchor="start" x="646" y="-511.8" font-family="Times,serif" font-size="14.00">updated_at :datetime</text>
<text text-anchor="start" x="646" y="-496.8" font-family="Times,serif" font-size="14.00">lecturer_id :int(11)</text>
</g>
<!-- Exam&#45;&gt;Text -->
<g id="edge3" class="edge"><title>Exam&#45;&gt;Text</title>
<path fill="none" stroke="#5e3712" d="M715,-480.555C715,-457.921 715,-432.945 715,-409.752"/>
<ellipse fill="none" stroke="#5e3712" cx="715" cy="-484.875" rx="4" ry="4"/>
<polygon fill="#5e3712" stroke="#5e3712" points="715,-409.587 719.5,-399.587 715,-404.587 715,-399.587 715,-399.587 715,-399.587 715,-404.587 710.5,-399.587 715,-409.587 715,-409.587"/>
</g>
<!-- University -->
<g id="node8" class="node"><title>University</title>
<path fill="none" stroke="black" d="M244,-481.5C244,-481.5 366,-481.5 366,-481.5 372,-481.5 378,-487.5 378,-493.5 378,-493.5 378,-620.5 378,-620.5 378,-626.5 372,-632.5 366,-632.5 366,-632.5 244,-632.5 244,-632.5 238,-632.5 232,-626.5 232,-620.5 232,-620.5 232,-493.5 232,-493.5 232,-487.5 238,-481.5 244,-481.5"/>
<text text-anchor="middle" x="305" y="-617.3" font-family="Times,serif" font-size="14.00">University</text>
<polyline fill="none" stroke="black" points="232,-609.5 378,-609.5 "/>
<text text-anchor="start" x="240" y="-594.3" font-family="Times,serif" font-size="14.00">id :int(11)</text>
<text text-anchor="start" x="240" y="-579.3" font-family="Times,serif" font-size="14.00">name :varchar(255)</text>
<text text-anchor="start" x="240" y="-564.3" font-family="Times,serif" font-size="14.00">address :varchar(255)</text>
<text text-anchor="start" x="240" y="-549.3" font-family="Times,serif" font-size="14.00">typ :varchar(255)</text>
<text text-anchor="start" x="240" y="-534.3" font-family="Times,serif" font-size="14.00">created_at :datetime</text>
<text text-anchor="start" x="240" y="-519.3" font-family="Times,serif" font-size="14.00">updated_at :datetime</text>
<text text-anchor="start" x="240" y="-504.3" font-family="Times,serif" font-size="14.00">username :varchar(255)</text>
<text text-anchor="start" x="240" y="-489.3" font-family="Times,serif" font-size="14.00">user_id :varchar(255)</text>
</g>
<!-- Course -->
<g id="node9" class="node"><title>Course</title>
<path fill="none" stroke="black" d="M234.5,-248.5C234.5,-248.5 375.5,-248.5 375.5,-248.5 381.5,-248.5 387.5,-254.5 387.5,-260.5 387.5,-260.5 387.5,-387.5 387.5,-387.5 387.5,-393.5 381.5,-399.5 375.5,-399.5 375.5,-399.5 234.5,-399.5 234.5,-399.5 228.5,-399.5 222.5,-393.5 222.5,-387.5 222.5,-387.5 222.5,-260.5 222.5,-260.5 222.5,-254.5 228.5,-248.5 234.5,-248.5"/>
<text text-anchor="middle" x="305" y="-384.3" font-family="Times,serif" font-size="14.00">Course</text>
<polyline fill="none" stroke="black" points="222.5,-376.5 387.5,-376.5 "/>
<text text-anchor="start" x="230.5" y="-361.3" font-family="Times,serif" font-size="14.00">id :int(11)</text>
<text text-anchor="start" x="230.5" y="-346.3" font-family="Times,serif" font-size="14.00">name :varchar(255)</text>
<text text-anchor="start" x="230.5" y="-331.3" font-family="Times,serif" font-size="14.00">description :varchar(255)</text>
<text text-anchor="start" x="230.5" y="-316.3" font-family="Times,serif" font-size="14.00">created_at :datetime</text>
<text text-anchor="start" x="230.5" y="-301.3" font-family="Times,serif" font-size="14.00">updated_at :datetime</text>
<text text-anchor="start" x="230.5" y="-286.3" font-family="Times,serif" font-size="14.00">university_id :varchar(255)</text>
<text text-anchor="start" x="230.5" y="-271.3" font-family="Times,serif" font-size="14.00">username :varchar(255)</text>
<text text-anchor="start" x="230.5" y="-256.3" font-family="Times,serif" font-size="14.00">user_id :varchar(255)</text>
</g>
<!-- University&#45;&gt;Course -->
<g id="edge4" class="edge"><title>University&#45;&gt;Course</title>
<path fill="none" stroke="#7195fb" d="M305,-473.276C305,-452.674 305,-430.557 305,-409.855"/>
<ellipse fill="none" stroke="#7195fb" cx="305" cy="-477.32" rx="4" ry="4"/>
<polygon fill="#7195fb" stroke="#7195fb" points="305,-409.818 309.5,-399.818 305,-404.818 305,-399.818 305,-399.818 305,-399.818 305,-404.818 300.5,-399.818 305,-409.818 305,-409.818"/>
</g>
<!-- Course&#45;&gt;Lecturer -->
<g id="edge5" class="edge"><title>Course&#45;&gt;Lecturer</title>
<path fill="none" stroke="#3f593e" d="M305,-239.921C305,-219.597 305,-197.725 305,-176.991"/>
<ellipse fill="none" stroke="#3f593e" cx="305" cy="-244.191" rx="4" ry="4"/>
<polygon fill="#3f593e" stroke="#3f593e" points="305,-176.916 309.5,-166.916 305,-171.916 305,-166.916 305,-166.916 305,-166.916 305,-171.916 300.5,-166.916 305,-176.916 305,-176.916"/>
</g>
</g>
</svg>
