<?xml version="1.0" encoding="UTF-8" standalone="no"?>
<!DOCTYPE svg PUBLIC "-//W3C//DTD SVG 1.1//EN"
 "http://www.w3.org/Graphics/SVG/1.1/DTD/svg11.dtd">
<!-- Generated by graphviz version 2.38.0 (20140413.2041)
 -->
<!-- Title: models_diagram Pages: 1 -->
<svg width="1284pt" height="235pt"
 viewBox="0.00 0.00 1284.00 235.00" xmlns="http://www.w3.org/2000/svg" xmlns:xlink="http://www.w3.org/1999/xlink">
<g id="graph0" class="graph" transform="scale(1 1) rotate(0) translate(4 231)">
<title>models_diagram</title>
<polygon fill="none" stroke="none" points="-4,4 -4,-231 1280,-231 1280,4 -4,4"/>
<!-- _diagram_info -->
<g id="node1" class="node"><title>_diagram_info</title>
<text text-anchor="start" x="8" y="-138.1" font-family="Times,serif" font-size="13.00">Models diagram</text>
<text text-anchor="start" x="8" y="-124.1" font-family="Times,serif" font-size="13.00">Date: Nov 23 2016 &#45; 10:33</text>
<text text-anchor="start" x="8" y="-110.1" font-family="Times,serif" font-size="13.00">Migration version: 20161122102742</text>
<text text-anchor="start" x="8" y="-96.1" font-family="Times,serif" font-size="13.00">Generated by RailRoady 1.5.2</text>
<text text-anchor="start" x="8" y="-82.1" font-family="Times,serif" font-size="13.00">http://railroady.prestonlee.com</text>
</g>
<!-- Lecturer -->
<g id="node2" class="node"><title>Lecturer</title>
<path fill="none" stroke="black" d="M244.5,-53C244.5,-53 363.5,-53 363.5,-53 369.5,-53 375.5,-59 375.5,-65 375.5,-65 375.5,-162 375.5,-162 375.5,-168 369.5,-174 363.5,-174 363.5,-174 244.5,-174 244.5,-174 238.5,-174 232.5,-168 232.5,-162 232.5,-162 232.5,-65 232.5,-65 232.5,-59 238.5,-53 244.5,-53"/>
<text text-anchor="middle" x="304" y="-158.8" font-family="Times,serif" font-size="14.00">Lecturer</text>
<polyline fill="none" stroke="black" points="232.5,-151 375.5,-151 "/>
<text text-anchor="start" x="240.5" y="-135.8" font-family="Times,serif" font-size="14.00">id :int(11)</text>
<text text-anchor="start" x="240.5" y="-120.8" font-family="Times,serif" font-size="14.00">name :varchar(255)</text>
<text text-anchor="start" x="240.5" y="-105.8" font-family="Times,serif" font-size="14.00">lastname :varchar(255)</text>
<text text-anchor="start" x="240.5" y="-90.8" font-family="Times,serif" font-size="14.00">title :varchar(255)</text>
<text text-anchor="start" x="240.5" y="-75.8" font-family="Times,serif" font-size="14.00">created_at :datetime</text>
<text text-anchor="start" x="240.5" y="-60.8" font-family="Times,serif" font-size="14.00">updated_at :datetime</text>
</g>
<!-- ApplicationRecord -->
<g id="node3" class="node"><title>ApplicationRecord</title>
<ellipse fill="none" stroke="black" cx="471" cy="-113.5" rx="77.1866" ry="18"/>
<text text-anchor="middle" x="471" y="-109.8" font-family="Times,serif" font-size="14.00">ApplicationRecord</text>
</g>
<!-- User -->
<g id="node4" class="node"><title>User</title>
<path fill="none" stroke="black" d="M578,-0.5C578,-0.5 768,-0.5 768,-0.5 774,-0.5 780,-6.5 780,-12.5 780,-12.5 780,-214.5 780,-214.5 780,-220.5 774,-226.5 768,-226.5 768,-226.5 578,-226.5 578,-226.5 572,-226.5 566,-220.5 566,-214.5 566,-214.5 566,-12.5 566,-12.5 566,-6.5 572,-0.5 578,-0.5"/>
<text text-anchor="middle" x="673" y="-211.3" font-family="Times,serif" font-size="14.00">User</text>
<polyline fill="none" stroke="black" points="566,-203.5 780,-203.5 "/>
<text text-anchor="start" x="574" y="-188.3" font-family="Times,serif" font-size="14.00">id :int(11)</text>
<text text-anchor="start" x="574" y="-173.3" font-family="Times,serif" font-size="14.00">email :varchar(255)</text>
<text text-anchor="start" x="574" y="-158.3" font-family="Times,serif" font-size="14.00">encrypted_password :varchar(255)</text>
<text text-anchor="start" x="574" y="-143.3" font-family="Times,serif" font-size="14.00">reset_password_token :varchar(255)</text>
<text text-anchor="start" x="574" y="-128.3" font-family="Times,serif" font-size="14.00">reset_password_sent_at :datetime</text>
<text text-anchor="start" x="574" y="-113.3" font-family="Times,serif" font-size="14.00">remember_created_at :datetime</text>
<text text-anchor="start" x="574" y="-98.3" font-family="Times,serif" font-size="14.00">sign_in_count :int(11)</text>
<text text-anchor="start" x="574" y="-83.3" font-family="Times,serif" font-size="14.00">current_sign_in_at :datetime</text>
<text text-anchor="start" x="574" y="-68.3" font-family="Times,serif" font-size="14.00">last_sign_in_at :datetime</text>
<text text-anchor="start" x="574" y="-53.3" font-family="Times,serif" font-size="14.00">current_sign_in_ip :varchar(255)</text>
<text text-anchor="start" x="574" y="-38.3" font-family="Times,serif" font-size="14.00">last_sign_in_ip :varchar(255)</text>
<text text-anchor="start" x="574" y="-23.3" font-family="Times,serif" font-size="14.00">created_at :datetime</text>
<text text-anchor="start" x="574" y="-8.3" font-family="Times,serif" font-size="14.00">updated_at :datetime</text>
</g>
<!-- Exam -->
<g id="node5" class="node"><title>Exam</title>
<path fill="none" stroke="black" d="M810,-53C810,-53 940,-53 940,-53 946,-53 952,-59 952,-65 952,-65 952,-162 952,-162 952,-168 946,-174 940,-174 940,-174 810,-174 810,-174 804,-174 798,-168 798,-162 798,-162 798,-65 798,-65 798,-59 804,-53 810,-53"/>
<text text-anchor="middle" x="875" y="-158.8" font-family="Times,serif" font-size="14.00">Exam</text>
<polyline fill="none" stroke="black" points="798,-151 952,-151 "/>
<text text-anchor="start" x="806" y="-135.8" font-family="Times,serif" font-size="14.00">id :int(11)</text>
<text text-anchor="start" x="806" y="-120.8" font-family="Times,serif" font-size="14.00">year :int(11)</text>
<text text-anchor="start" x="806" y="-105.8" font-family="Times,serif" font-size="14.00">name :varchar(255)</text>
<text text-anchor="start" x="806" y="-90.8" font-family="Times,serif" font-size="14.00">description :varchar(255)</text>
<text text-anchor="start" x="806" y="-75.8" font-family="Times,serif" font-size="14.00">created_at :datetime</text>
<text text-anchor="start" x="806" y="-60.8" font-family="Times,serif" font-size="14.00">updated_at :datetime</text>
</g>
<!-- University -->
<g id="node6" class="node"><title>University</title>
<path fill="none" stroke="black" d="M982,-53C982,-53 1092,-53 1092,-53 1098,-53 1104,-59 1104,-65 1104,-65 1104,-162 1104,-162 1104,-168 1098,-174 1092,-174 1092,-174 982,-174 982,-174 976,-174 970,-168 970,-162 970,-162 970,-65 970,-65 970,-59 976,-53 982,-53"/>
<text text-anchor="middle" x="1037" y="-158.8" font-family="Times,serif" font-size="14.00">University</text>
<polyline fill="none" stroke="black" points="970,-151 1104,-151 "/>
<text text-anchor="start" x="978" y="-135.8" font-family="Times,serif" font-size="14.00">id :int(11)</text>
<text text-anchor="start" x="978" y="-120.8" font-family="Times,serif" font-size="14.00">name :varchar(255)</text>
<text text-anchor="start" x="978" y="-105.8" font-family="Times,serif" font-size="14.00">address :varchar(255)</text>
<text text-anchor="start" x="978" y="-90.8" font-family="Times,serif" font-size="14.00">typ :varchar(255)</text>
<text text-anchor="start" x="978" y="-75.8" font-family="Times,serif" font-size="14.00">created_at :datetime</text>
<text text-anchor="start" x="978" y="-60.8" font-family="Times,serif" font-size="14.00">updated_at :datetime</text>
</g>
<!-- Course -->
<g id="node7" class="node"><title>Course</title>
<path fill="none" stroke="black" d="M1134,-60.5C1134,-60.5 1264,-60.5 1264,-60.5 1270,-60.5 1276,-66.5 1276,-72.5 1276,-72.5 1276,-154.5 1276,-154.5 1276,-160.5 1270,-166.5 1264,-166.5 1264,-166.5 1134,-166.5 1134,-166.5 1128,-166.5 1122,-160.5 1122,-154.5 1122,-154.5 1122,-72.5 1122,-72.5 1122,-66.5 1128,-60.5 1134,-60.5"/>
<text text-anchor="middle" x="1199" y="-151.3" font-family="Times,serif" font-size="14.00">Course</text>
<polyline fill="none" stroke="black" points="1122,-143.5 1276,-143.5 "/>
<text text-anchor="start" x="1130" y="-128.3" font-family="Times,serif" font-size="14.00">id :int(11)</text>
<text text-anchor="start" x="1130" y="-113.3" font-family="Times,serif" font-size="14.00">name :varchar(255)</text>
<text text-anchor="start" x="1130" y="-98.3" font-family="Times,serif" font-size="14.00">description :varchar(255)</text>
<text text-anchor="start" x="1130" y="-83.3" font-family="Times,serif" font-size="14.00">created_at :datetime</text>
<text text-anchor="start" x="1130" y="-68.3" font-family="Times,serif" font-size="14.00">updated_at :datetime</text>
</g>
</g>
</svg>
