<?xml version="1.0" encoding="UTF-8" standalone="no"?>
<!DOCTYPE svg PUBLIC "-//W3C//DTD SVG 1.1//EN"
 "http://www.w3.org/Graphics/SVG/1.1/DTD/svg11.dtd">
<!-- Generated by graphviz version 2.38.0 (20140413.2041)
 -->
<!-- Title: models_diagram Pages: 1 -->
<svg width="553pt" height="158pt"
 viewBox="0.00 0.00 552.75 158.00" xmlns="http://www.w3.org/2000/svg" xmlns:xlink="http://www.w3.org/1999/xlink">
<g id="graph0" class="graph" transform="scale(1 1) rotate(0) translate(4 154)">
<title>models_diagram</title>
<polygon fill="none" stroke="none" points="-4,4 -4,-154 548.747,-154 548.747,4 -4,4"/>
<!-- _diagram_info -->
<g id="node1" class="node"><title>_diagram_info</title>
<text text-anchor="start" x="8" y="-135.6" font-family="Times,serif" font-size="13.00">Models diagram</text>
<text text-anchor="start" x="8" y="-121.6" font-family="Times,serif" font-size="13.00">Date: Nov 23 2016 &#45; 11:24</text>
<text text-anchor="start" x="8" y="-107.6" font-family="Times,serif" font-size="13.00">Migration version: 20161122102742</text>
<text text-anchor="start" x="8" y="-93.6" font-family="Times,serif" font-size="13.00">Generated by RailRoady 1.5.2</text>
<text text-anchor="start" x="8" y="-79.6" font-family="Times,serif" font-size="13.00">http://railroady.prestonlee.com</text>
</g>
<!-- Lecturer -->
<g id="node2" class="node"><title>Lecturer</title>
<ellipse fill="none" stroke="black" cx="146" cy="-18" rx="40.0939" ry="18"/>
<text text-anchor="middle" x="146" y="-14.3" font-family="Times,serif" font-size="14.00">Lecturer</text>
</g>
<!-- ApplicationRecord -->
<g id="node3" class="node"><title>ApplicationRecord</title>
<ellipse fill="none" stroke="black" cx="309" cy="-111" rx="77.1866" ry="18"/>
<text text-anchor="middle" x="309" y="-107.3" font-family="Times,serif" font-size="14.00">ApplicationRecord</text>
</g>
<!-- ApplicationRecord&#45;&gt;Lecturer -->
<g id="edge1" class="edge"><title>ApplicationRecord&#45;&gt;Lecturer</title>
<path fill="none" stroke="black" d="M280.608,-94.149C249.322,-76.6827 199.543,-48.892 170.09,-32.4488"/>
</g>
<!-- User -->
<g id="node4" class="node"><title>User</title>
<ellipse fill="none" stroke="black" cx="232" cy="-18" rx="27.0966" ry="18"/>
<text text-anchor="middle" x="232" y="-14.3" font-family="Times,serif" font-size="14.00">User</text>
</g>
<!-- ApplicationRecord&#45;&gt;User -->
<g id="edge2" class="edge"><title>ApplicationRecord&#45;&gt;User</title>
<path fill="none" stroke="black" d="M294.517,-92.8836C280.228,-75.9964 258.59,-50.4241 244.883,-34.2249"/>
</g>
<!-- Exam -->
<g id="node5" class="node"><title>Exam</title>
<ellipse fill="none" stroke="black" cx="309" cy="-18" rx="31.6951" ry="18"/>
<text text-anchor="middle" x="309" y="-14.3" font-family="Times,serif" font-size="14.00">Exam</text>
</g>
<!-- ApplicationRecord&#45;&gt;Exam -->
<g id="edge3" class="edge"><title>ApplicationRecord&#45;&gt;Exam</title>
<path fill="none" stroke="black" d="M309,-92.8836C309,-76.6142 309,-52.2836 309,-36.0397"/>
</g>
<!-- University -->
<g id="node6" class="node"><title>University</title>
<ellipse fill="none" stroke="black" cx="407" cy="-18" rx="48.1917" ry="18"/>
<text text-anchor="middle" x="407" y="-14.3" font-family="Times,serif" font-size="14.00">University</text>
</g>
<!-- ApplicationRecord&#45;&gt;University -->
<g id="edge4" class="edge"><title>ApplicationRecord&#45;&gt;University</title>
<path fill="none" stroke="black" d="M326.975,-93.3092C344.878,-76.6846 372.169,-51.3433 389.797,-34.9747"/>
</g>
<!-- Course -->
<g id="node7" class="node"><title>Course</title>
<ellipse fill="none" stroke="black" cx="509" cy="-18" rx="35.9954" ry="18"/>
<text text-anchor="middle" x="509" y="-14.3" font-family="Times,serif" font-size="14.00">Course</text>
</g>
<!-- ApplicationRecord&#45;&gt;Course -->
<g id="edge5" class="edge"><title>ApplicationRecord&#45;&gt;Course</title>
<path fill="none" stroke="black" d="M342.476,-94.7686C382.174,-76.7056 447.473,-46.9949 483.37,-30.6614"/>
</g>
</g>
</svg>
